<svg width="16" height="14" viewBox="0 0 16 14" fill="none" xmlns="http://www.w3.org/2000/svg">
<path fill-rule="evenodd" clip-rule="evenodd" d="M-0.283605 0.955605C-0.590042 1.01581 -0.75 1.23778 -0.75 1.60442C-0.75 2.0196 -0.563981 2.22718 -0.154201 2.26852C-0.031087 2.2811 3.72523 2.28649 8.19328 2.2802C16.2424 2.26942 16.3179 2.26852 16.4392 2.19753C16.6845 2.05285 16.7951 1.76798 16.7331 1.43818C16.7205 1.34913 16.6874 1.26421 16.6364 1.19014C16.5854 1.11606 16.5179 1.05485 16.4392 1.01132C16.3179 0.940328 16.2478 0.939429 8.08544 0.934038C3.55809 0.931342 -0.208119 0.941226 -0.283605 0.955605ZM-0.283605 6.34745C-0.590042 6.40766 -0.75 6.62962 -0.75 6.99627C-0.75 7.41144 -0.563981 7.61903 -0.154201 7.66037C-0.031087 7.67295 3.72523 7.67834 8.19328 7.67205C16.2424 7.66126 16.3179 7.66037 16.4392 7.58937C16.6845 7.44469 16.7951 7.15982 16.7331 6.83002C16.7205 6.74097 16.6874 6.65606 16.6364 6.58198C16.5854 6.50791 16.5179 6.44669 16.4392 6.40317C16.3179 6.33217 16.2478 6.33128 8.08544 6.32588C3.55809 6.32319 -0.208119 6.33307 -0.283605 6.34745ZM-0.283605 11.7393C-0.590042 11.7995 -0.75 12.0215 -0.75 12.3881C-0.75 12.8033 -0.563981 13.0109 -0.154201 13.0522C-0.031087 13.0648 3.72523 13.0702 8.19328 13.0639C16.2424 13.0531 16.3179 13.0522 16.4392 12.9812C16.6845 12.8365 16.7951 12.5517 16.7331 12.2219C16.7205 12.1328 16.6874 12.0479 16.6364 11.9738C16.5854 11.8998 16.5179 11.8385 16.4392 11.795C16.3179 11.724 16.2478 11.7231 8.08544 11.7177C3.55809 11.715 -0.208119 11.7249 -0.283605 11.7393Z" fill="white"/>
</svg>
