<svg width="18" height="18" viewBox="0 0 18 18" fill="none" xmlns="http://www.w3.org/2000/svg">
<path fill-rule="evenodd" clip-rule="evenodd" d="M1.06217 0.732647C0.977115 0.773446 0.901061 0.830823 0.838475 0.901412C0.77589 0.972001 0.728034 1.05438 0.697715 1.14371C0.664159 1.25743 0.658566 1.52588 0.677208 2.15133C0.739661 4.23183 1.03608 5.98888 1.62051 7.7394C2.33732 9.887 3.35612 11.548 4.8326 12.9779C6.9364 15.0155 9.97605 16.4706 13.3224 17.042C14.1594 17.1846 14.8296 17.2554 15.8046 17.3039C16.4916 17.3374 16.6267 17.3356 16.7982 17.2852C16.9248 17.2475 17.0386 17.1757 17.1272 17.0778C17.2158 16.9798 17.2758 16.8594 17.3007 16.7297C17.3295 16.5973 17.3389 15.8572 17.3305 14.3388C17.3174 11.9712 17.3258 12.071 17.118 11.8463C16.9716 11.6888 16.8989 11.6608 16.088 11.4511C14.8555 11.1377 13.637 10.7717 12.4359 10.354C11.9204 10.1704 11.7788 10.1508 11.5793 10.2338C11.5103 10.2626 11.0871 10.5619 10.6388 10.8984C10.1904 11.2339 9.80547 11.5201 9.78403 11.5341C9.72251 11.5704 9.31051 11.3626 8.89199 11.0848C8.07638 10.5423 7.03707 9.30629 6.55796 8.30986L6.47407 8.13555L7.08088 7.32647C7.7082 6.49036 7.79209 6.3524 7.79209 6.1492C7.79209 5.86863 7.16011 3.66603 6.55516 1.83535C6.35569 1.2332 6.26434 1.00856 6.17859 0.910682C5.96047 0.661806 6.09469 0.673924 3.51552 0.673924C1.46951 0.673924 1.16005 0.68138 1.06217 0.732647ZM5.38255 2.84576C5.73863 3.95872 5.90454 4.50774 6.11427 5.28233L6.30256 5.97676L5.67244 6.82126C5.3257 7.28546 5.02555 7.69839 5.00598 7.7394C4.87362 8.00785 4.93793 8.25393 5.34713 9.04903C5.83557 9.99513 6.32306 10.6569 7.11816 11.4511C7.53202 11.865 7.76412 12.0626 8.09037 12.2788C9.0374 12.9071 9.84928 13.1625 10.2529 12.9583C10.3042 12.9322 10.704 12.6405 11.1403 12.3105C11.5774 11.9805 11.9531 11.7102 11.9754 11.7102C11.9978 11.7102 12.3362 11.8174 12.7286 11.9489C13.5004 12.2071 14.6982 12.5659 15.4262 12.7561L15.8829 12.8754V15.8908L15.5753 15.8684C13.0418 15.6792 10.9874 15.146 9.03088 14.1701C5.76845 12.5435 3.76532 10.1322 2.76143 6.62365C2.42047 5.39212 2.21358 4.12734 2.14437 2.85136C2.13589 2.64414 2.12252 2.43715 2.10429 2.23057L2.08658 2.09075H5.1402L5.38255 2.84576Z" fill="#1C1C1E"/>
</svg>
