<svg width="12" height="12" viewBox="0 0 12 12" fill="none" xmlns="http://www.w3.org/2000/svg">
<path fill-rule="evenodd" clip-rule="evenodd" d="M11.4286 6.00005C11.4286 9.15597 8.8702 11.7143 5.71429 11.7143C2.55837 11.7143 0 9.15597 0 6.00005C0 2.84414 2.55837 0.285767 5.71429 0.285767C8.8702 0.285767 11.4286 2.84414 11.4286 6.00005ZM8.45162 4.47906C8.61342 4.30189 8.61104 4.0172 8.44629 3.84319C8.28154 3.66918 8.01681 3.67174 7.855 3.84891L4.79965 7.19441L3.57357 5.8519C3.41176 5.67472 3.14703 5.67216 2.98228 5.84617C2.81753 6.02018 2.81515 6.30487 2.97696 6.48204L4.50135 8.15119C4.57996 8.23727 4.68745 8.28577 4.79965 8.28577C4.91185 8.28577 5.01934 8.23727 5.09796 8.15119L8.45162 4.47906Z" fill="#66B342"/>
</svg>
