<svg width="14" height="20" viewBox="0 0 14 20" fill="none" xmlns="http://www.w3.org/2000/svg">
<path d="M12.4233 3.19622C13.4094 4.47809 13.9024 5.66136 13.9024 7.04183C13.9024 8.71813 13.2122 10.2958 11.5359 12.0707C9.66239 14.0428 7.9861 16.2121 7.9861 18.3815C7.9861 18.7759 8.0847 19.1703 8.18331 19.6633C8.18331 19.7619 8.18331 19.8606 8.0847 19.9592C7.9861 20.0578 7.88749 19.9592 7.88749 19.8606C6.90144 18.5787 6.40841 17.3954 6.40841 16.0149C6.40841 14.3386 7.09865 12.761 8.77494 10.9861C10.6484 9.01394 12.3247 6.84462 12.3247 4.6753C12.3247 4.28088 12.2261 3.88646 12.1275 3.39343C12.1275 3.29483 12.1275 3.19622 12.2261 3.09761C12.3247 3.09761 12.3247 3.09761 12.4233 3.19622ZM4.73211 0.238055C5.42235 1.1255 5.71817 2.11156 5.71817 2.99901C5.71817 4.28088 5.12654 5.46415 3.94327 6.74602C2.56279 8.2251 1.28092 9.90139 1.28092 11.4791C1.28092 11.7749 1.37953 12.1693 1.47813 12.3665C1.47813 12.4651 1.47813 12.4651 1.37953 12.5637C1.28092 12.6623 1.18232 12.5637 1.18232 12.5637C0.393473 11.5777 0.0976562 10.5916 0.0976562 9.70418C0.0976562 8.42231 0.689289 7.23905 1.87256 5.95717C3.25303 4.47809 4.5349 2.8018 4.5349 1.22411C4.5349 0.928293 4.4363 0.533871 4.33769 0.33666V0.139449C4.5349 0.139449 4.63351 0.139449 4.73211 0.238055ZM5.12654 7.92928C7.00004 5.95717 8.67634 3.78785 8.67634 1.61853C8.67634 1.22411 8.57773 0.829688 8.47912 0.33666C8.47912 0.238055 8.47913 0.139449 8.57773 0.0408437C8.67634 -0.0577618 8.77494 0.0408438 8.77494 0.139449C9.761 1.42132 10.254 2.60459 10.254 3.98506C10.254 5.66136 9.56378 7.23905 7.88749 9.01394C6.01399 10.9861 4.33769 13.1554 4.33769 15.3247C4.33769 15.7191 4.4363 16.1135 4.5349 16.6066C4.5349 16.7052 4.5349 16.8038 4.4363 16.9024C4.33769 17.001 4.23909 16.9024 4.23909 16.8038C3.25303 15.5219 2.76 14.3386 2.76 12.9582C2.76 11.2819 3.45024 9.70418 5.12654 7.92928Z" fill="#468C25"/>
</svg>
