<svg width="23" height="22" viewBox="0 0 23 22" fill="none" xmlns="http://www.w3.org/2000/svg">
<path fill-rule="evenodd" clip-rule="evenodd" d="M10.7089 2.04293C12.0223 0.729549 13.8036 -0.00830078 15.661 -0.00830078C17.5184 -0.00830078 19.2997 0.729549 20.6131 2.04293C21.9265 3.35631 22.6644 5.13764 22.6644 6.99504C22.6644 8.85208 21.9268 10.6331 20.6139 11.9464L20.6131 11.9471L17.9596 14.6085C17.9069 14.6772 17.8454 14.7388 17.7769 14.7918L15.3395 17.2364C14.2138 18.3655 12.685 19 11.0906 19H5.08019L2.37312 21.7071C1.9826 22.0976 1.34943 22.0976 0.958909 21.7071C0.568385 21.3166 0.568385 20.6834 0.958909 20.2929L3.66602 17.5858V11.5711C3.66602 9.9798 4.29816 8.45368 5.42338 7.32846L10.7089 2.04293ZM16.7391 13L19.1979 10.534L19.1989 10.5329C20.1372 9.59462 20.6644 8.322 20.6644 6.99504C20.6644 5.66807 20.1372 4.39545 19.1989 3.45714C18.2606 2.51884 16.988 1.9917 15.661 1.9917C14.334 1.9917 13.0614 2.51884 12.1231 3.45714L6.83759 8.74268C6.08744 9.49282 5.66602 10.5102 5.66602 11.5711V15.5858L14.9589 6.29289C15.3494 5.90237 15.9826 5.90237 16.3731 6.29289C16.7636 6.68342 16.7636 7.31658 16.3731 7.70711L11.0802 13H16.7391ZM9.08023 15H14.7451L13.9232 15.8243C13.1727 16.577 12.1535 17 11.0906 17H7.08019L9.08023 15Z" fill="#468C25"/>
</svg>
