<svg width="22" height="22" viewBox="0 0 22 22" fill="none" xmlns="http://www.w3.org/2000/svg">
<path d="M18.758 3.5815C17.7847 2.59861 16.6268 1.8177 15.3508 1.28365C14.0749 0.749595 12.7059 0.472919 11.3227 0.469514C9.93949 0.46611 8.56923 0.736044 7.29064 1.26381C6.01205 1.79158 4.85034 2.56677 3.87225 3.54486C2.89416 4.52295 2.11897 5.68466 1.5912 6.96325C1.06344 8.24183 0.793502 9.6121 0.796907 10.9953C0.800311 12.3785 1.07699 13.7475 1.61104 15.0234C2.14509 16.2994 2.926 17.4573 3.90889 18.4306C4.88215 19.4135 6.04003 20.1944 7.31601 20.7284C8.59198 21.2625 9.9609 21.5391 11.3441 21.5425C12.7274 21.5459 14.0976 21.276 15.3762 20.7482C16.6548 20.2205 17.8165 19.4453 18.7946 18.4672C19.7727 17.4891 20.5479 16.3274 21.0756 15.0488C21.6034 13.7702 21.8733 12.4 21.8699 11.0167C21.8665 9.63351 21.5899 8.26459 21.0558 6.98862C20.5218 5.71264 19.7408 4.55476 18.758 3.5815ZM2.33342 11.006C2.33309 10.2095 2.4387 9.41644 2.64748 8.64775C2.99155 9.38837 3.49123 10.0282 3.83108 10.7881C4.2703 11.7649 5.44967 11.494 5.97045 12.3499C6.43264 13.1098 5.93905 14.0707 6.28499 14.8657C6.53623 15.4427 7.12874 15.5688 7.53749 15.9907C7.95514 16.4163 7.94624 16.9995 8.00998 17.5545C8.08192 18.2066 8.1986 18.8529 8.3592 19.489C8.3592 19.4937 8.3592 19.4988 8.36295 19.5035C4.8553 18.2717 2.33342 14.9281 2.33342 11.006ZM11.3334 20.006C10.8308 20.0059 10.3291 19.9639 9.83342 19.8804C9.83858 19.7534 9.84092 19.6348 9.85358 19.5523C9.96748 18.807 10.3406 18.0781 10.844 17.5202C11.3414 16.9699 12.023 16.5977 12.443 15.9734C12.8545 15.364 12.9778 14.5437 12.8081 13.8317C12.5583 12.7798 11.129 12.4287 10.3584 11.8582C9.91545 11.5301 9.52123 11.0229 8.93952 10.9817C8.67139 10.9629 8.44686 11.0206 8.18108 10.9521C7.93733 10.8888 7.74608 10.7576 7.48639 10.7918C7.00123 10.8556 6.69514 11.374 6.17389 11.3037C5.67936 11.2376 5.16983 10.6587 5.05733 10.1876C4.91295 9.58197 5.39202 9.38556 5.9053 9.33165C6.11952 9.30915 6.35998 9.28478 6.56577 9.36353C6.8367 9.46384 6.96467 9.72915 7.20795 9.86322C7.66405 10.1135 7.75639 9.71369 7.68655 9.30869C7.58202 8.70212 7.46014 8.45509 8.00108 8.03744C8.37608 7.74962 8.6967 7.5415 8.6367 7.02447C8.60108 6.72072 8.43467 6.58337 8.58983 6.28103C8.70749 6.05087 9.03045 5.84322 9.24092 5.70587C9.7842 5.3515 11.5683 5.37775 10.8394 4.38587C10.6251 4.09478 10.23 3.57447 9.85499 3.50322C9.38624 3.41462 9.17811 3.93775 8.85139 4.16837C8.51389 4.40697 7.8567 4.67791 7.51873 4.309C7.06405 3.81259 7.82014 3.64994 7.98748 3.30306C8.06483 3.14134 7.98748 2.91681 7.85717 2.7054C8.02623 2.63416 8.19811 2.56806 8.3728 2.50712C8.48228 2.58798 8.61215 2.63668 8.7478 2.64775C9.06139 2.66837 9.35717 2.49869 9.63092 2.71244C9.93467 2.94681 10.1536 3.24306 10.5567 3.31619C10.9467 3.38697 11.3597 3.15962 11.4562 2.76025C11.5148 2.51744 11.4562 2.26103 11.4 2.01025C13.1531 2.02034 14.8646 2.54537 16.3219 3.52009C16.2281 3.48447 16.1161 3.48869 15.9778 3.5529C15.6933 3.68509 15.2901 4.02166 15.2569 4.3554C15.2189 4.73416 15.7776 4.78759 16.043 4.78759C16.4414 4.78759 16.845 4.60947 16.7165 4.14915C16.6608 3.94947 16.5848 3.74181 16.4625 3.61619C16.7566 3.82026 17.0383 4.04159 17.3062 4.279C17.302 4.28322 17.2978 4.28697 17.2936 4.29166C17.0236 4.57291 16.71 4.79556 16.5253 5.13775C16.395 5.37869 16.2483 5.49306 15.9844 5.55541C15.839 5.58962 15.6731 5.60228 15.5512 5.69978C15.2119 5.96697 15.405 6.60915 15.7265 6.80181C16.133 7.04509 16.7358 6.93072 17.0423 6.58337C17.2819 6.3115 17.423 5.83947 17.8537 5.83994C18.0434 5.83954 18.2256 5.9138 18.3609 6.04666C18.539 6.23134 18.5039 6.40384 18.5419 6.63447C18.6089 7.04415 18.9703 6.82197 19.1901 6.61525C19.3504 6.90045 19.495 7.19416 19.6233 7.49509C19.3814 7.84337 19.1892 8.22306 18.6075 7.81712C18.2592 7.57384 18.045 7.22087 17.6076 7.11119C17.2256 7.01744 16.8342 7.11494 16.4569 7.18009C16.028 7.25462 15.5194 7.28744 15.194 7.61228C14.8795 7.9254 14.7131 8.34447 14.3784 8.659C13.7311 9.26837 13.4578 9.93353 13.8769 10.7951C14.28 11.6234 15.1233 12.0729 16.0331 12.0138C16.927 11.9543 17.8556 11.4359 17.8298 12.7348C17.8205 13.1946 17.9165 13.5129 18.0576 13.9399C18.1884 14.3337 18.1795 14.7152 18.2095 15.1217C18.238 15.5976 18.3124 16.0696 18.4317 16.5312C17.5915 17.613 16.5152 18.4884 15.285 19.0906C14.0547 19.6929 12.7031 20.006 11.3334 20.006Z" fill="#468C25"/>
</svg>
