<svg width="10" height="10" viewBox="0 0 10 10" fill="none" xmlns="http://www.w3.org/2000/svg">
<path fill-rule="evenodd" clip-rule="evenodd" d="M4.67909 0.0180623C2.47078 0.150672 0.595629 1.75642 0.116837 3.92517C0.0288952 4.32487 0.00469971 4.55472 0.00469971 5.00467C0.00469971 5.71471 0.123351 6.30518 0.396016 6.95659C1.01347 8.43019 2.34887 9.54086 3.92065 9.88798C4.32034 9.97592 4.5502 10.0001 5.00014 10.0001C5.71019 10.0001 6.30065 9.88146 6.95207 9.6088C8.12788 9.11604 9.11152 8.1324 9.60427 6.95659C9.87694 6.30518 9.99559 5.71471 9.99559 5.00467C9.99559 4.29462 9.87694 3.70416 9.60427 3.05274C8.94402 1.4777 7.46902 0.327486 5.77114 0.0645922C5.60643 0.0390008 5.01969 -0.00613319 4.94431 0.000846291C4.92895 0.00224219 4.80937 0.0101522 4.67909 0.0180623ZM5.65156 0.751373C6.55944 0.892816 7.39852 1.32017 8.0468 1.9713C8.69509 2.62243 9.11876 3.46338 9.25623 4.37186C9.3023 4.67058 9.3023 5.33875 9.25623 5.63747C9.0408 7.03709 8.15999 8.24547 6.90787 8.8578C6.5135 9.05613 6.09082 9.19221 5.65482 9.26122C5.37238 9.30868 4.62791 9.30868 4.34547 9.26122C3.90947 9.19221 3.48679 9.05613 3.09242 8.8578C2.68197 8.66036 2.30836 8.39409 1.9878 8.07052C1.31928 7.41656 0.882427 6.5623 0.743594 5.63747C0.697529 5.33875 0.697529 4.67058 0.743594 4.37186C0.857071 3.62249 1.16564 2.91615 1.63835 2.32372C2.11106 1.73128 2.73127 1.27359 3.43674 0.996585C3.77967 0.861183 4.14353 0.775568 4.62791 0.716941C4.77401 0.698794 5.46451 0.722059 5.65156 0.751373ZM4.91034 1.88158C4.79448 1.90717 4.69398 2.01326 4.66699 2.1375C4.63861 2.27011 4.63861 4.98419 4.66699 5.08842C4.71119 5.25081 4.70933 5.24941 5.75951 5.77427C6.29926 6.04414 6.76828 6.27028 6.80225 6.27679C7.03629 6.32146 7.25638 6.08509 7.19496 5.85523C7.15122 5.69098 7.14657 5.68773 6.21876 5.22336L5.35517 4.79109L5.34958 3.45988L5.34447 2.12912L5.30305 2.05142C5.2435 1.94068 5.18068 1.9002 5.01876 1.86902C4.98222 1.86844 4.94577 1.87266 4.91034 1.88158Z" fill="#818698"/>
</svg>
