<svg width="12" height="12" viewBox="0 0 12 12" fill="none" xmlns="http://www.w3.org/2000/svg">
<path fill-rule="evenodd" clip-rule="evenodd" d="M0.183059 0.183058C0.427136 -0.0610194 0.822865 -0.0610194 1.06694 0.183058L6 5.11612L10.9331 0.183058C11.1771 -0.0610194 11.5729 -0.0610194 11.8169 0.183058C12.061 0.427136 12.061 0.822864 11.8169 1.06694L6.88388 6L11.8169 10.9331C12.061 11.1771 12.061 11.5729 11.8169 11.8169C11.5729 12.061 11.1771 12.061 10.9331 11.8169L6 6.88388L1.06694 11.8169C0.822864 12.061 0.427136 12.061 0.183058 11.8169C-0.0610194 11.5729 -0.0610194 11.1771 0.183058 10.9331L5.11612 6L0.183059 1.06694C-0.0610189 0.822864 -0.0610189 0.427136 0.183059 0.183058Z" fill="white"/>
</svg>
