<svg width="20" height="20" viewBox="0 0 20 20" fill="none" xmlns="http://www.w3.org/2000/svg">
<path d="M2.5 11.4715L3.1225 11.5248C3.10815 11.6849 3.0327 11.8333 2.9118 11.9392C2.79091 12.0451 2.63387 12.1003 2.4733 12.0935C2.31273 12.0866 2.16098 12.0182 2.04957 11.9023C1.93815 11.7865 1.87563 11.6322 1.875 11.4715H2.5ZM16.8633 9.95234L16.275 6.55234L17.5075 6.339L18.095 9.739L16.8633 9.95234ZM11.0375 2.2915H7.16333V1.0415H11.0375V2.2915ZM6.40417 2.98984L5.7275 10.8165L4.48167 10.709L5.15917 2.8815L6.40417 2.98984ZM16.275 6.55234C15.8525 4.11067 13.6508 2.2915 11.0375 2.2915V1.0415C14.2258 1.0415 16.9758 3.26567 17.5075 6.339L16.275 6.55234ZM11.0458 15.7498L10.4933 12.379L11.7267 12.1773L12.2792 15.5473L11.0458 15.7498ZM5.99 11.4615L7.18917 12.4948L6.3725 13.4423L5.17333 12.409L5.99 11.4615ZM9.37 15.8565L9.76667 17.3848L8.55667 17.6982L8.16 16.1707L9.37 15.8565ZM10.365 17.6848L10.4858 17.6457L10.8683 18.8357L10.7475 18.8748L10.365 17.6848ZM8.76917 14.3198C9.02917 14.8065 9.23167 15.3223 9.37 15.8565L8.16 16.1707C8.04608 15.7318 7.88048 15.308 7.66667 14.9082L8.76917 14.3198ZM10.4858 17.6457C10.6047 17.6096 10.7126 17.5441 10.7994 17.4553C10.8863 17.3664 10.9492 17.257 10.9825 17.1373L12.1925 17.4507C12.1064 17.7744 11.9398 18.0711 11.7083 18.3133C11.4768 18.5554 11.1879 18.7351 10.8683 18.8357L10.4858 17.6457ZM9.76667 17.3848C9.78317 17.4449 9.81261 17.5006 9.85291 17.5481C9.89322 17.5956 9.94342 17.6338 10 17.6598L9.4575 18.7857C9.23735 18.6807 9.04272 18.5291 8.88714 18.3413C8.73157 18.1535 8.61879 17.934 8.55667 17.6982L9.76667 17.3848ZM10 17.6598C10.1141 17.7143 10.2446 17.7233 10.365 17.6848L10.7475 18.8748C10.3219 19.0112 9.86026 18.9793 9.4575 18.7857L10 17.6598ZM11.795 10.8465H16.1117V12.0965H11.795V10.8465ZM3.9325 2.1615L3.1225 11.5248L1.8775 11.4173L2.68583 2.054L3.9325 2.1615ZM3.125 2.07234V11.4715H1.875V2.07234H3.125ZM2.68583 2.054C2.68329 2.08429 2.68791 2.11477 2.69778 2.14352C2.70765 2.17226 2.72339 2.19864 2.744 2.22097C2.76461 2.24331 2.78964 2.26111 2.8175 2.27325C2.84536 2.2854 2.87544 2.29161 2.90583 2.2915V1.0415C3.51083 1.0415 3.98417 1.55984 3.9325 2.1615L2.68583 2.054ZM12.2792 15.5473C12.3833 16.1807 12.3542 16.829 12.1925 17.4507L10.9825 17.1365C11.0992 16.684 11.1217 16.2115 11.0458 15.7498L12.2792 15.5473ZM7.16333 2.2915C6.97238 2.29185 6.78849 2.36376 6.64795 2.49304C6.50741 2.62232 6.42043 2.79957 6.40417 2.98984L5.15917 2.8815C5.20253 2.3797 5.4324 1.91238 5.80342 1.57175C6.17444 1.23112 6.65966 1.04193 7.16333 1.0415V2.2915ZM7.18917 12.4948C7.75583 12.9832 8.36583 13.564 8.77 14.3198L7.66667 14.909C7.37833 14.3682 6.91917 13.9123 6.3725 13.4423L7.18917 12.4948ZM18.095 9.739C18.1452 10.0282 18.1315 10.3248 18.055 10.6082C17.9784 10.8915 17.8409 11.1547 17.6519 11.3793C17.463 11.6039 17.2272 11.7844 16.9612 11.9083C16.6951 12.0322 16.4052 12.0964 16.1117 12.0965V10.8465C16.223 10.8464 16.3329 10.8221 16.4338 10.7751C16.5346 10.728 16.624 10.6595 16.6956 10.5744C16.7672 10.4892 16.8193 10.3894 16.8483 10.2819C16.8773 10.1745 16.8824 10.062 16.8633 9.95234L18.095 9.739ZM2.90583 2.2915C2.96396 2.2915 3.01971 2.26841 3.06081 2.22731C3.10191 2.18621 3.125 2.13046 3.125 2.07234H1.875C1.875 1.504 2.33583 1.0415 2.90583 1.0415V2.2915ZM10.4933 12.379C10.4623 12.1902 10.4726 11.9969 10.5238 11.8125C10.5749 11.6281 10.6655 11.457 10.7893 11.3111C10.9132 11.1652 11.0673 11.048 11.2409 10.9677C11.4146 10.8873 11.6036 10.8465 11.795 10.8465V12.0965C11.7533 12.0965 11.72 12.134 11.7267 12.1773L10.4933 12.379ZM5.7275 10.8165C5.7172 10.9372 5.73487 11.0586 5.78065 11.1707C5.82643 11.2829 5.89818 11.3825 5.99 11.4615L5.17333 12.409C4.93168 12.2006 4.74296 11.9379 4.62271 11.6423C4.50247 11.3468 4.45412 11.0269 4.48167 10.709L5.7275 10.8165Z" fill="#818698"/>
</svg>
