<svg width="17" height="18" viewBox="0 0 17 18" fill="none" xmlns="http://www.w3.org/2000/svg">
<path fill-rule="evenodd" clip-rule="evenodd" d="M16.9987 8.99996C16.9987 13.6023 13.2677 17.3333 8.66536 17.3333C4.06299 17.3333 0.332031 13.6023 0.332031 8.99996C0.332031 4.39759 4.06299 0.666626 8.66536 0.666626C13.2677 0.666626 16.9987 4.39759 16.9987 8.99996ZM7.64871 5.71304C8.03046 5.48868 8.4793 5.40666 8.91572 5.48152C9.35215 5.55638 9.748 5.78328 10.0332 6.12203C10.3183 6.46079 10.4744 6.88953 10.4737 7.33233L10.4737 7.33326C10.4737 7.8348 10.0893 8.29673 9.50205 8.68823C9.22744 8.8713 8.94839 9.01127 8.73553 9.10588C8.62998 9.15279 8.5429 9.18758 8.48366 9.21014C8.4541 9.22141 8.43162 9.22956 8.41743 9.23461L8.40256 9.23982L8.40014 9.24065C8.14545 9.326 7.97374 9.56458 7.97374 9.83326V11.0832C7.97374 11.4284 8.25356 11.7082 8.59874 11.7082C8.94392 11.7082 9.22374 11.4284 9.22374 11.0832V10.2568L9.2432 10.2481C9.49908 10.1344 9.84503 9.96189 10.1954 9.72829C10.858 9.28655 11.7234 8.49872 11.7237 7.334C11.7248 6.59607 11.4647 5.88157 10.9894 5.31703C10.5142 4.75245 9.85442 4.37428 9.12705 4.24952C8.39967 4.12475 7.65161 4.26144 7.01536 4.63537C6.3791 5.0093 5.89572 5.59634 5.65082 6.29252C5.53628 6.61814 5.70738 6.97497 6.033 7.08951C6.35862 7.20406 6.71544 7.03295 6.82999 6.70733C6.97693 6.28962 7.26696 5.9374 7.64871 5.71304ZM8.66553 12.5416C8.32036 12.5416 8.04053 12.8214 8.04053 13.1666C8.04053 13.5118 8.32036 13.7916 8.66553 13.7916H8.67387C9.01905 13.7916 9.29887 13.5118 9.29887 13.1666C9.29887 12.8214 9.01905 12.5416 8.67387 12.5416H8.66553Z" fill="#818698"/>
</svg>
