<svg width="18" height="16" viewBox="0 0 18 16" fill="none" xmlns="http://www.w3.org/2000/svg">
<path d="M7.24792 2.25753C7.83783 2.25742 8.45188 2.25753 9.08138 2.25791C16.855 2.26304 16.9218 2.2639 17.0373 2.33151C17.1123 2.37297 17.1766 2.43127 17.2251 2.50181C17.2737 2.57236 17.3052 2.65323 17.3172 2.73804C17.3763 3.05214 17.271 3.32344 17.0373 3.46123C16.9218 3.52884 16.8499 3.5297 9.18408 3.53997C8.50704 3.54092 7.84716 3.54159 7.21565 3.542C6.93032 4.3524 6.15801 4.93327 5.25002 4.93327C4.34149 4.93327 3.5688 4.35171 3.28388 3.54055C2.05832 3.53833 1.2875 3.5343 1.23411 3.52884C0.843848 3.48947 0.666687 3.29177 0.666687 2.89637C0.666687 2.54719 0.819028 2.33579 1.11087 2.27845C1.14465 2.27202 1.95434 2.26653 3.25057 2.26278C3.50409 1.39807 4.30331 0.766602 5.25002 0.766602C6.19481 0.766602 6.99271 1.39551 7.24792 2.25753Z" fill="#468C25"/>
<path d="M0.666687 8.03146C0.666687 7.68227 0.819028 7.47088 1.11087 7.41353C1.18276 7.39984 4.76962 7.39043 9.08138 7.39299C9.68918 7.3934 10.2499 7.39377 10.7671 7.39415C11.0375 6.55716 11.823 5.95174 12.75 5.95174C13.6791 5.95174 14.4661 6.55989 14.7347 7.39983C16.9076 7.40686 16.9621 7.42259 17.0373 7.4666C17.1123 7.50805 17.1766 7.56635 17.2251 7.6369C17.2737 7.70745 17.3052 7.78832 17.3172 7.87312C17.3763 8.18722 17.271 8.45852 17.0373 8.59632C16.9618 8.64049 16.905 8.65617 14.7366 8.66459C14.4697 9.50749 13.6812 10.1184 12.75 10.1184C11.8219 10.1184 11.0355 9.5115 10.7661 8.67289C10.2784 8.67358 9.75209 8.67429 9.18408 8.67505C4.92881 8.68104 1.35137 8.67591 1.23411 8.66393C0.843848 8.62456 0.666687 8.42686 0.666687 8.03146Z" fill="#468C25"/>
<path d="M0.666687 13.1665C0.666687 12.8174 0.819028 12.606 1.11087 12.5486C1.14473 12.5422 1.9581 12.5367 3.2596 12.5329C3.52262 11.6836 4.31427 11.0667 5.25002 11.0667C6.18385 11.0667 6.97417 11.6811 7.23881 12.5277C7.83151 12.5276 8.44864 12.5277 9.08138 12.5281C16.855 12.5332 16.9218 12.5341 17.0373 12.6017C17.1123 12.6431 17.1766 12.7014 17.2251 12.772C17.2737 12.8425 17.3052 12.9234 17.3172 13.0082C17.3763 13.3223 17.271 13.5936 17.0373 13.7314C16.9218 13.799 16.8499 13.7999 9.18408 13.8101C8.51072 13.8111 7.85432 13.8118 7.22593 13.8122C6.94925 14.6382 6.16914 15.2334 5.25002 15.2334C4.33035 15.2334 3.54987 14.6375 3.27363 13.8107C2.05402 13.8085 1.28735 13.8045 1.23411 13.799C0.843848 13.7596 0.666687 13.5619 0.666687 13.1665Z" fill="#468C25"/>
</svg>
