<svg width="25" height="24" viewBox="0 0 25 24" fill="none" xmlns="http://www.w3.org/2000/svg">
<g clip-path="url(#clip0_1376_35724)">
<path d="M12.7144 24C9.53176 24 6.47951 22.7357 4.22907 20.4853C1.97864 18.2348 0.714355 15.1826 0.714355 12C0.714355 8.8174 1.97864 5.76516 4.22907 3.51472C6.47951 1.26428 9.53176 0 12.7144 0C15.897 0 18.9492 1.26428 21.1996 3.51472C23.4501 5.76516 24.7144 8.8174 24.7144 12C24.7144 15.1826 23.4501 18.2348 21.1996 20.4853C18.9492 22.7357 15.897 24 12.7144 24ZM13.0924 4.602C13.0074 4.54848 12.9121 4.51348 12.8127 4.49928C12.7133 4.48509 12.612 4.49202 12.5155 4.51962C12.4189 4.54722 12.3293 4.59488 12.2524 4.65948C12.1756 4.72407 12.1132 4.80416 12.0694 4.8945L10.2694 8.5425L6.24336 9.1275C6.1103 9.14581 5.98508 9.2012 5.88202 9.28733C5.77896 9.37347 5.70224 9.48687 5.66061 9.61457C5.61898 9.74227 5.61414 9.8791 5.64663 10.0094C5.67913 10.1397 5.74765 10.2583 5.84436 10.3515L8.76035 13.1895L8.07036 17.2005C8.04821 17.3323 8.06328 17.4677 8.11387 17.5914C8.16446 17.7152 8.24856 17.8223 8.35672 17.9009C8.46489 17.9794 8.59281 18.0263 8.72613 18.0361C8.85944 18.0459 8.99285 18.0183 9.11136 17.9565L12.7144 16.0635L16.3144 17.955C16.4328 18.0175 16.5664 18.0455 16.7 18.0359C16.8335 18.0264 16.9617 17.9796 17.0701 17.9009C17.1784 17.8222 17.2626 17.7148 17.313 17.5907C17.3634 17.4667 17.3781 17.331 17.3554 17.199L16.6684 13.1895L19.5814 10.35C19.6765 10.2563 19.7436 10.1381 19.7752 10.0084C19.8069 9.87872 19.8018 9.7428 19.7605 9.61587C19.7192 9.48894 19.6434 9.37601 19.5416 9.28975C19.4397 9.20349 19.3159 9.14731 19.1839 9.1275L15.1564 8.5425L13.3564 4.8945C13.2977 4.77403 13.2062 4.67262 13.0924 4.602Z" fill="#468C25"/>
</g>
<defs>
<clipPath id="clip0_1376_35724">
<rect width="24" height="24" fill="white" transform="translate(0.714355)"/>
</clipPath>
</defs>
</svg>
