<svg width="19" height="24" viewBox="0 0 19 24" fill="none" xmlns="http://www.w3.org/2000/svg">
<path d="M18.6858 14.72C18.6858 11.84 16.7658 9.76 15.1658 7.68C12.4458 4.16 9.40576 0 9.40576 0C9.40576 0 6.36576 4.16 3.64576 7.52C2.04576 9.6 0.285767 11.84 0.285767 14.72C0.285767 19.52 3.96576 23.52 8.60576 24V20.48L5.56577 18.72C5.24577 18.56 5.08576 18.08 5.40576 17.76C5.56576 17.44 6.04577 17.28 6.36577 17.44L8.76577 18.88V15.04L5.72577 13.28C5.40577 13.12 5.24577 12.64 5.56577 12.32C5.72577 12 6.20577 11.84 6.52577 12L8.92577 13.44V9.28C8.92577 8.96 9.24577 8.64 9.56577 8.64C9.88577 8.64 10.2058 8.96 10.2058 9.28V13.44L12.6058 12C12.9258 11.84 13.2458 12 13.5658 12.32C13.7258 12.64 13.5658 13.12 13.4058 13.28L10.3658 15.04V18.88L12.7658 17.44C13.0858 17.28 13.4058 17.44 13.7258 17.76C13.8858 18.08 13.7258 18.56 13.5658 18.72L10.5258 20.48V24C14.8458 23.68 18.6858 19.52 18.6858 14.72Z" fill="#4B8B33"/>
</svg>
