<svg width="22" height="20" viewBox="0 0 22 20" fill="none" xmlns="http://www.w3.org/2000/svg">
<path d="M4.85718 11C5.65718 11 6.39051 11.2167 7.05718 11.65C7.72384 12.0833 8.21551 12.675 8.53218 13.425L8.78218 14H9.40718C10.1072 14 10.6905 14.246 11.1572 14.738C11.6238 15.23 11.8572 15.8173 11.8572 16.5C11.8572 17.2 11.6155 17.7917 11.1322 18.275C10.6488 18.7583 10.0572 19 9.35718 19H4.85718C3.75718 19 2.81551 18.6083 2.03218 17.825C1.24884 17.0417 0.857178 16.1 0.857178 15C0.857178 13.8833 1.24884 12.9373 2.03218 12.162C2.81551 11.3867 3.75718 10.9993 4.85718 11ZM10.1072 0C9.80718 1.65 9.89884 3.26267 10.3822 4.838C10.8655 6.41333 11.6988 7.79233 12.8822 8.975C14.0655 10.1577 15.4448 10.991 17.0202 11.475C18.5955 11.959 20.2078 12.0507 21.8572 11.75C21.4238 14.1167 20.2988 16.071 18.4822 17.613C16.6655 19.155 14.5655 19.9507 12.1822 20C12.7155 19.5667 13.1282 19.046 13.4202 18.438C13.7122 17.83 13.8578 17.184 13.8572 16.5C13.8572 15.3667 13.5032 14.3877 12.7952 13.563C12.0872 12.7383 11.1828 12.2423 10.0822 12.075C9.54884 11.125 8.81984 10.375 7.89518 9.825C6.97051 9.275 5.95784 9 4.85718 9C4.32384 9 3.80318 9.06667 3.29518 9.2C2.78718 9.33333 2.30784 9.53333 1.85718 9.8C1.89051 7.38333 2.67818 5.25833 4.22018 3.425C5.76218 1.59167 7.72451 0.45 10.1072 0Z" fill="#468C25"/>
</svg>
