<svg width="23" height="24" viewBox="0 0 23 24" fill="none" xmlns="http://www.w3.org/2000/svg">
<path d="M10.6786 3.75V1.5C10.6786 1.30109 10.7576 1.11032 10.8983 0.96967C11.0389 0.829018 11.2297 0.75 11.4286 0.75C11.6275 0.75 11.8183 0.829018 11.9589 0.96967C12.0996 1.11032 12.1786 1.30109 12.1786 1.5V3.75C12.1786 3.94891 12.0996 4.13968 11.9589 4.28033C11.8183 4.42098 11.6275 4.5 11.4286 4.5C11.2297 4.5 11.0389 4.42098 10.8983 4.28033C10.7576 4.13968 10.6786 3.94891 10.6786 3.75ZM11.4286 6C10.2419 6 9.08186 6.35189 8.09517 7.01118C7.10847 7.67047 6.33944 8.60754 5.88531 9.7039C5.43119 10.8003 5.31237 12.0067 5.54388 13.1705C5.77539 14.3344 6.34683 15.4035 7.18595 16.2426C8.02506 17.0818 9.09416 17.6532 10.258 17.8847C11.4219 18.1162 12.6283 17.9974 13.7247 17.5433C14.821 17.0892 15.7581 16.3201 16.4174 15.3334C17.0767 14.3467 17.4286 13.1867 17.4286 12C17.4269 10.4092 16.7942 8.88412 15.6693 7.75928C14.5445 6.63444 13.0194 6.00174 11.4286 6ZM4.89796 6.53063C5.03869 6.67136 5.22957 6.75042 5.42859 6.75042C5.62761 6.75042 5.81848 6.67136 5.95921 6.53062C6.09994 6.38989 6.17901 6.19902 6.17901 6C6.17901 5.80098 6.09994 5.61011 5.95921 5.46938L4.45921 3.96938C4.31848 3.82864 4.12761 3.74958 3.92859 3.74958C3.72957 3.74958 3.53869 3.82864 3.39796 3.96938C3.25723 4.11011 3.17817 4.30098 3.17817 4.5C3.17817 4.69902 3.25723 4.88989 3.39796 5.03062L4.89796 6.53063ZM4.89796 17.4694L3.39796 18.9694C3.25723 19.1101 3.17817 19.301 3.17817 19.5C3.17817 19.699 3.25723 19.8899 3.39796 20.0306C3.53869 20.1714 3.72957 20.2504 3.92859 20.2504C4.12761 20.2504 4.31848 20.1714 4.45921 20.0306L5.95921 18.5306C6.0289 18.4609 6.08417 18.3782 6.12188 18.2872C6.1596 18.1961 6.17901 18.0985 6.17901 18C6.17901 17.9015 6.1596 17.8039 6.12188 17.7128C6.08417 17.6218 6.0289 17.5391 5.95921 17.4694C5.88953 17.3997 5.80681 17.3444 5.71576 17.3067C5.62472 17.269 5.52713 17.2496 5.42859 17.2496C5.33004 17.2496 5.23246 17.269 5.14142 17.3067C5.05037 17.3444 4.96765 17.3997 4.89796 17.4694ZM17.4286 6.75C17.5271 6.75008 17.6247 6.73074 17.7157 6.6931C17.8068 6.65546 17.8895 6.60025 17.9592 6.53063L19.4592 5.03062C19.5999 4.88989 19.679 4.69902 19.679 4.5C19.679 4.30098 19.5999 4.11011 19.4592 3.96938C19.3185 3.82864 19.1276 3.74958 18.9286 3.74958C18.7296 3.74958 18.5387 3.82864 18.398 3.96938L16.898 5.46938C16.793 5.57427 16.7214 5.70796 16.6924 5.85352C16.6635 5.99908 16.6783 6.14998 16.7351 6.28709C16.7919 6.42421 16.8882 6.54139 17.0116 6.62379C17.135 6.70619 17.2802 6.75012 17.4286 6.75ZM17.9592 17.4694C17.8185 17.3286 17.6276 17.2496 17.4286 17.2496C17.2296 17.2496 17.0387 17.3286 16.898 17.4694C16.7572 17.6101 16.6782 17.801 16.6782 18C16.6782 18.199 16.7572 18.3899 16.898 18.5306L18.398 20.0306C18.4676 20.1003 18.5504 20.1556 18.6414 20.1933C18.7325 20.231 18.83 20.2504 18.9286 20.2504C19.0271 20.2504 19.1247 20.231 19.2158 20.1933C19.3068 20.1556 19.3895 20.1003 19.4592 20.0306C19.5289 19.9609 19.5842 19.8782 19.6219 19.7872C19.6596 19.6961 19.679 19.5985 19.679 19.5C19.679 19.4015 19.6596 19.3039 19.6219 19.2128C19.5842 19.1218 19.5289 19.0391 19.4592 18.9694L17.9592 17.4694ZM3.92859 12C3.92859 11.8011 3.84957 11.6103 3.70892 11.4697C3.56827 11.329 3.3775 11.25 3.17859 11.25H0.928589C0.729676 11.25 0.538911 11.329 0.398259 11.4697C0.257606 11.6103 0.178589 11.8011 0.178589 12C0.178589 12.1989 0.257606 12.3897 0.398259 12.5303C0.538911 12.671 0.729676 12.75 0.928589 12.75H3.17859C3.3775 12.75 3.56827 12.671 3.70892 12.5303C3.84957 12.3897 3.92859 12.1989 3.92859 12ZM11.4286 19.5C11.2297 19.5 11.0389 19.579 10.8983 19.7197C10.7576 19.8603 10.6786 20.0511 10.6786 20.25V22.5C10.6786 22.6989 10.7576 22.8897 10.8983 23.0303C11.0389 23.171 11.2297 23.25 11.4286 23.25C11.6275 23.25 11.8183 23.171 11.9589 23.0303C12.0996 22.8897 12.1786 22.6989 12.1786 22.5V20.25C12.1786 20.0511 12.0996 19.8603 11.9589 19.7197C11.8183 19.579 11.6275 19.5 11.4286 19.5ZM21.9286 11.25H19.6786C19.4797 11.25 19.2889 11.329 19.1483 11.4697C19.0076 11.6103 18.9286 11.8011 18.9286 12C18.9286 12.1989 19.0076 12.3897 19.1483 12.5303C19.2889 12.671 19.4797 12.75 19.6786 12.75H21.9286C22.1275 12.75 22.3183 12.671 22.4589 12.5303C22.5996 12.3897 22.6786 12.1989 22.6786 12C22.6786 11.8011 22.5996 11.6103 22.4589 11.4697C22.3183 11.329 22.1275 11.25 21.9286 11.25Z" fill="#468C25"/>
</svg>
