<svg width="18" height="16" viewBox="0 0 18 16" fill="none" xmlns="http://www.w3.org/2000/svg">
<path fill-rule="evenodd" clip-rule="evenodd" d="M10.9438 0.861877C11.5203 0.622967 12.1384 0.5 12.7625 0.5C13.3866 0.5 14.0046 0.622968 14.5812 0.861877C15.1578 1.10079 15.6817 1.45096 16.1229 1.89239C16.5642 2.33357 16.9143 2.85737 17.1532 3.43387C17.3921 4.01046 17.5151 4.62847 17.5151 5.25259C17.5151 5.87672 17.3921 6.49473 17.1532 7.07132C16.9143 7.64786 16.5642 8.1717 16.1228 8.6129C16.1228 8.61293 16.1228 8.61287 16.1228 8.6129L9.40267 15.333C9.18002 15.5557 8.81902 15.5557 8.59637 15.333L1.87626 8.6129C0.985051 7.72169 0.484375 6.51295 0.484375 5.25259C0.484375 3.99224 0.985051 2.7835 1.87626 1.89229C2.76747 1.00108 3.97621 0.500407 5.23656 0.500407C6.49692 0.500407 7.70566 1.00108 8.59687 1.89229L8.99952 2.29494L9.40208 1.89239C9.8433 1.45096 10.3672 1.10079 10.9438 0.861877ZM12.7625 1.64029C12.2881 1.64029 11.8185 1.73375 11.3802 1.91532C10.942 2.09689 10.5439 2.36302 10.2086 2.6985L9.40267 3.5044C9.18002 3.72706 8.81902 3.72706 8.59637 3.5044L7.79056 2.6986C7.1132 2.02123 6.1945 1.6407 5.23656 1.6407C4.27863 1.6407 3.35993 2.02123 2.68257 2.6986C2.0052 3.37596 1.62466 4.29466 1.62466 5.25259C1.62466 6.21053 2.0052 7.12923 2.68257 7.80659L8.99952 14.1235L15.3165 7.80659C15.652 7.47127 15.9182 7.07303 16.0998 6.63483C16.2813 6.19662 16.3748 5.72693 16.3748 5.25259C16.3748 4.77826 16.2813 4.30857 16.0998 3.87037C15.9182 3.43216 15.6521 3.03402 15.3166 2.69869C14.9812 2.36321 14.5829 2.09689 14.1447 1.91532C13.7065 1.73374 13.2368 1.64029 12.7625 1.64029Z" fill="#818698"/>
</svg>
