<svg width="24" height="24" viewBox="0 0 24 24" fill="none" xmlns="http://www.w3.org/2000/svg">
<path fill-rule="evenodd" clip-rule="evenodd" d="M14.5921 2.4825C15.3609 2.16396 16.1849 2 17.017 2C17.8492 2 18.6732 2.16396 19.442 2.4825C20.2108 2.80105 20.9093 3.26794 21.4976 3.85651C22.086 4.44475 22.5528 5.14316 22.8713 5.91183C23.1899 6.68061 23.3538 7.50463 23.3538 8.33679C23.3538 9.16896 23.1899 9.99298 22.8713 10.7618C22.5528 11.5305 22.086 12.2289 21.4975 12.8172C21.4974 12.8172 21.4975 12.8172 21.4975 12.8172L12.5373 21.7773C12.2404 22.0742 11.7591 22.0742 11.4622 21.7773L2.50209 12.8172C1.31381 11.6289 0.64624 10.0173 0.64624 8.33679C0.64624 6.65632 1.31381 5.04467 2.50209 3.85639C3.69036 2.66811 5.30201 2.00054 6.98249 2.00054C8.66297 2.00054 10.2746 2.66811 11.4629 3.85639L11.9998 4.39326L12.5365 3.85651C13.1248 3.26795 13.8233 2.80105 14.5921 2.4825ZM17.017 3.52039C16.3846 3.52039 15.7583 3.64499 15.1741 3.88709C14.5898 4.12918 14.0589 4.48402 13.6118 4.93134L12.5373 6.00587C12.2404 6.30274 11.7591 6.30274 11.4622 6.00587L10.3878 4.93146C9.48467 4.02831 8.25974 3.52093 6.98249 3.52093C5.70525 3.52093 4.48031 4.02831 3.57716 4.93146C2.67401 5.83461 2.16663 7.05955 2.16663 8.33679C2.16663 9.61404 2.67401 10.839 3.57716 11.7421L11.9998 20.1647L20.4224 11.7421C20.8697 11.295 21.2247 10.764 21.4667 10.1798C21.7088 9.59549 21.8335 8.96924 21.8335 8.33679C21.8335 7.70435 21.7088 7.0781 21.4667 6.49382C21.2247 5.90954 20.8698 5.37869 20.4225 4.93159C19.9754 4.48428 19.4443 4.12918 18.86 3.88709C18.2757 3.64499 17.6495 3.52039 17.017 3.52039Z" fill="#1C1C1E"/>
</svg>
