<svg width="19" height="20" viewBox="0 0 19 20" fill="none" xmlns="http://www.w3.org/2000/svg">
<path fill-rule="evenodd" clip-rule="evenodd" d="M9.32207 0.0181931C9.17496 0.0545034 9.32765 -0.0618756 4.47418 3.71532C1.78164 5.81108 0.561054 6.78214 0.507985 6.87245C0.431641 7.00187 0.431641 7.02607 0.431641 12.4214C0.431641 17.5607 0.435365 17.8521 0.499606 18.0821C0.620173 18.5248 0.85428 18.9284 1.17875 19.2529C1.50323 19.5774 1.90681 19.8115 2.34957 19.932C2.58046 19.9972 2.9175 20 9.49989 20C16.0823 20 16.4193 19.9972 16.6502 19.932C17.093 19.8115 17.4966 19.5774 17.821 19.2529C18.1455 18.9284 18.3796 18.5248 18.5002 18.0821C18.5644 17.8521 18.5681 17.5607 18.5681 12.4214C18.5681 7.02514 18.5681 7.00187 18.4918 6.87245C18.4387 6.78214 17.1418 5.75056 14.2649 3.51143C12.8247 2.38508 11.3791 1.26566 9.92817 0.153193C9.728 0.016331 9.52038 -0.0292895 9.32207 0.0181931ZM13.3404 4.56535L17.1725 7.54559L17.1623 12.656L17.153 17.7655L17.0617 17.9508C16.931 18.2108 16.7113 18.4153 16.4426 18.5271C16.2471 18.5997 16.1624 18.6035 14.6187 18.6035H13.0006L12.9987 14.2928C12.9978 11.9214 12.9829 9.90948 12.9661 9.8201C12.9515 9.72947 12.9165 9.64334 12.8638 9.56819C12.811 9.49304 12.7419 9.43083 12.6617 9.38624C12.5379 9.31362 12.468 9.31176 9.49989 9.31176C6.53176 9.31176 6.46194 9.31362 6.33811 9.38624C6.25786 9.43083 6.18876 9.49304 6.13603 9.56819C6.0833 9.64334 6.0483 9.72947 6.03366 9.8201C6.0169 9.90948 6.00201 11.9214 6.00107 14.2928L5.99921 18.6035H4.38108C2.83743 18.6035 2.7527 18.5997 2.55719 18.5271C2.3086 18.434 2.06374 18.2059 1.93805 17.9508L1.84681 17.7655V7.52697L5.66404 4.55604C6.9375 3.5615 8.21427 2.57119 9.49431 1.58512C10.7801 2.57367 12.0621 3.56709 13.3404 4.56535ZM11.5854 14.6559V18.6035H7.41438V10.7083H11.5854V14.6559Z" fill="#468C25"/>
</svg>
