<svg width="24" height="24" viewBox="0 0 24 24" fill="none" xmlns="http://www.w3.org/2000/svg">
<path fill-rule="evenodd" clip-rule="evenodd" d="M9.76441 2.99795C10.0458 2.6837 10.3903 2.43231 10.7754 2.26021C11.1605 2.0881 11.5776 1.99915 11.9994 1.99915C12.4212 1.99915 12.8383 2.0881 13.2234 2.26021C13.6085 2.43231 13.953 2.6837 14.2344 2.99795L14.9344 3.77995C15.0344 3.89186 15.1584 3.97981 15.2971 4.03728C15.4357 4.09476 15.5855 4.12028 15.7354 4.11195L16.7854 4.05395C17.2065 4.03083 17.6277 4.09673 18.0215 4.24735C18.4154 4.39798 18.7731 4.62994 19.0712 4.92812C19.3694 5.22629 19.6014 5.58398 19.752 5.97784C19.9026 6.37171 19.9685 6.7929 19.9454 7.21395L19.8874 8.26395C19.8792 8.41366 19.9048 8.56328 19.9623 8.70176C20.0198 8.84024 20.1076 8.96402 20.2194 9.06395L21.0024 9.76395C21.3168 10.0453 21.5684 10.3899 21.7406 10.7751C21.9128 11.1603 22.0018 11.5775 22.0018 11.9995C22.0018 12.4214 21.9128 12.8386 21.7406 13.2238C21.5684 13.609 21.3168 13.9536 21.0024 14.235L20.2194 14.935C20.1075 15.035 20.0196 15.1589 19.9621 15.2976C19.9046 15.4363 19.8791 15.5861 19.8874 15.736L19.9454 16.786C19.9685 17.207 19.9026 17.6282 19.752 18.0221C19.6014 18.4159 19.3694 18.7736 19.0712 19.0718C18.7731 19.37 18.4154 19.6019 18.0215 19.7526C17.6277 19.9032 17.2065 19.9691 16.7854 19.946L15.7354 19.888C15.5857 19.8798 15.4361 19.9054 15.2976 19.9628C15.1591 20.0203 15.0353 20.1082 14.9354 20.22L14.2354 21.003C13.954 21.3174 13.6095 21.5689 13.2243 21.7411C12.8391 21.9133 12.4219 22.0023 11.9999 22.0023C11.578 22.0023 11.1608 21.9133 10.7756 21.7411C10.3903 21.5689 10.0458 21.3174 9.76441 21.003L9.06441 20.22C8.96438 20.108 8.84043 20.0201 8.70177 19.9626C8.56311 19.9051 8.41328 19.8796 8.26341 19.888L7.21341 19.946C6.79236 19.9691 6.37117 19.9032 5.9773 19.7526C5.58344 19.6019 5.22575 19.37 4.92758 19.0718C4.6294 18.7736 4.39744 18.4159 4.24681 18.0221C4.09619 17.6282 4.03029 17.207 4.05341 16.786L4.11141 15.736C4.11958 15.5862 4.09399 15.4366 4.03652 15.2981C3.97905 15.1597 3.89118 15.0359 3.77941 14.936L2.99741 14.236C2.68299 13.9546 2.43146 13.61 2.25926 13.2248C2.08706 12.8396 1.99805 12.4224 1.99805 12.0005C1.99805 11.5785 2.08706 11.1613 2.25926 10.7761C2.43146 10.3909 2.68299 10.0463 2.99741 9.76495L3.77941 9.06495C3.89132 8.96492 3.97927 8.84097 4.03674 8.70231C4.09422 8.56365 4.11974 8.41382 4.11141 8.26395L4.05341 7.21395C4.03029 6.7929 4.09619 6.37171 4.24681 5.97784C4.39744 5.58398 4.6294 5.22629 4.92758 4.92812C5.22575 4.62994 5.58344 4.39798 5.9773 4.24735C6.37117 4.09673 6.79236 4.03083 7.21341 4.05395L8.26341 4.11195C8.41312 4.12012 8.56274 4.09453 8.70122 4.03706C8.8397 3.97959 8.96348 3.89172 9.06341 3.77995L9.76441 2.99795ZM15.7064 8.29295C15.8939 8.48048 15.9992 8.73479 15.9992 8.99995C15.9992 9.26512 15.8939 9.51942 15.7064 9.70695L9.70641 15.707C9.51781 15.8891 9.26521 15.9899 9.00301 15.9876C8.74081 15.9853 8.49 15.8802 8.30459 15.6948C8.11919 15.5094 8.01402 15.2585 8.01174 14.9964C8.00946 14.7342 8.11025 14.4816 8.29241 14.293L14.2924 8.29295C14.4799 8.10548 14.7342 8.00017 14.9994 8.00017C15.2646 8.00017 15.5189 8.10548 15.7064 8.29295ZM9.49941 7.99995C9.10159 7.99995 8.72006 8.15799 8.43875 8.43929C8.15745 8.7206 7.99941 9.10213 7.99941 9.49995V9.50995C7.99941 9.90778 8.15745 10.2893 8.43875 10.5706C8.72006 10.8519 9.10159 11.01 9.49941 11.01H9.50941C9.90724 11.01 10.2888 10.8519 10.5701 10.5706C10.8514 10.2893 11.0094 9.90778 11.0094 9.50995V9.49995C11.0094 9.10213 10.8514 8.7206 10.5701 8.43929C10.2888 8.15799 9.90724 7.99995 9.50941 7.99995H9.49941ZM14.4994 13C14.1016 13 13.7201 13.158 13.4388 13.4393C13.1574 13.7206 12.9994 14.1021 12.9994 14.5V14.51C12.9994 14.9078 13.1574 15.2893 13.4388 15.5706C13.7201 15.8519 14.1016 16.01 14.4994 16.01H14.5094C14.9072 16.01 15.2888 15.8519 15.5701 15.5706C15.8514 15.2893 16.0094 14.9078 16.0094 14.51V14.5C16.0094 14.1021 15.8514 13.7206 15.5701 13.4393C15.2888 13.158 14.9072 13 14.5094 13H14.4994Z" fill="#468C25"/>
</svg>
