<svg width="20" height="20" viewBox="0 0 20 20" fill="none" xmlns="http://www.w3.org/2000/svg">
<path d="M2.5 8.52818L3.1225 8.47485C3.10815 8.31478 3.0327 8.16639 2.9118 8.06049C2.79091 7.9546 2.63387 7.89935 2.4733 7.90621C2.31273 7.91308 2.16098 7.98153 2.04957 8.09736C1.93815 8.21318 1.87563 8.36747 1.875 8.52818H2.5ZM16.8633 10.0474L16.275 13.4473L17.5075 13.6607L18.095 10.2607L16.8633 10.0474ZM11.0375 17.7082H7.16333V18.9582H11.0375V17.7082ZM6.40417 17.0107L5.7275 9.18318L4.48167 9.29068L5.15917 17.1182L6.40417 17.0107ZM16.275 13.4473C15.8525 15.889 13.6508 17.7082 11.0375 17.7082V18.9582C14.2258 18.9582 16.9758 16.734 17.5075 13.6607L16.275 13.4473ZM11.0458 4.24985L10.4933 7.62068L11.7267 7.82235L12.2792 4.45235L11.0458 4.24985ZM5.99 8.53818L7.18917 7.50485L6.3725 6.55818L5.175 7.59152L5.99 8.53818ZM9.37 4.14318L9.76667 2.61485L8.55667 2.30152L8.16 3.82902L9.37 4.14318ZM10.365 2.31485L10.4858 2.35402L10.8683 1.16402L10.7475 1.12485L10.365 2.31485ZM8.76917 5.67985C9.02948 5.19318 9.23116 4.67735 9.37 4.14318L8.16 3.82902C8.04607 4.26788 7.88047 4.69168 7.66667 5.09152L8.76917 5.67985ZM10.4858 2.35402C10.6047 2.39005 10.7126 2.45554 10.7994 2.54441C10.8863 2.63328 10.9492 2.74264 10.9825 2.86235L12.1925 2.54902C12.1064 2.22527 11.9398 1.92854 11.7083 1.6864C11.4768 1.44426 11.1879 1.26457 10.8683 1.16402L10.4858 2.35402ZM9.76667 2.61485C9.78328 2.55483 9.81275 2.49914 9.85304 2.45165C9.89334 2.40416 9.94348 2.36601 10 2.33985L9.4575 1.21402C9.01417 1.42735 8.68083 1.82235 8.55667 2.30152L9.76667 2.61485ZM10 2.33985C10.1141 2.28538 10.2446 2.27644 10.365 2.31485L10.7475 1.12485C10.3219 0.98845 9.86026 1.02036 9.4575 1.21402L10 2.33985ZM11.795 9.15318H16.1117V7.90318H11.795V9.15318ZM3.9325 17.8382L3.1225 8.47485L1.8775 8.58235L2.68583 17.9457L3.9325 17.8382ZM3.125 17.9273V8.52818H1.875V17.9273H3.125ZM2.68583 17.9457C2.68329 17.9154 2.68791 17.8849 2.69778 17.8562C2.70765 17.8274 2.72339 17.8011 2.744 17.7787C2.76461 17.7564 2.78964 17.7386 2.8175 17.7264C2.84536 17.7143 2.87544 17.7081 2.90583 17.7082V18.9582C3.51083 18.9582 3.98417 18.4398 3.9325 17.8382L2.68583 17.9457ZM12.2792 4.45235C12.3831 3.81879 12.3536 3.17051 12.1925 2.54902L10.9825 2.86318C11.0999 3.31595 11.1215 3.78826 11.0458 4.24985L12.2792 4.45235ZM7.16333 17.7082C6.97251 17.7079 6.78873 17.6361 6.64821 17.507C6.50769 17.3779 6.42062 17.2008 6.40417 17.0107L5.15917 17.1182C5.20253 17.62 5.4324 18.0873 5.80342 18.4279C6.17444 18.7686 6.65966 18.9578 7.16333 18.9582V17.7082ZM7.18917 7.50485C7.75583 7.01652 8.36583 6.43568 8.77 5.67985L7.66667 5.09152C7.37833 5.63235 6.91917 6.08818 6.3725 6.55818L7.18917 7.50485ZM18.095 10.2607C18.1452 9.97151 18.1315 9.67486 18.055 9.39151C17.9784 9.10817 17.8409 8.84499 17.6519 8.6204C17.463 8.39581 17.2272 8.21524 16.9612 8.09135C16.6951 7.96746 16.4052 7.90324 16.1117 7.90318V9.15318C16.5842 9.15318 16.945 9.57985 16.8633 10.0474L18.095 10.2607ZM2.90583 17.7082C3.0275 17.7082 3.125 17.8065 3.125 17.9273H1.875C1.875 18.4957 2.33583 18.9582 2.90583 18.9582V17.7082ZM10.4933 7.62068C10.4623 7.8095 10.4726 8.00281 10.5238 8.18722C10.5749 8.37162 10.6655 8.54269 10.7893 8.68857C10.9132 8.83445 11.0673 8.95164 11.2409 9.03201C11.4146 9.11239 11.6036 9.15318 11.795 9.15318V7.90318C11.7848 7.90323 11.7748 7.90187 11.7656 7.89758C11.7563 7.8933 11.7482 7.88704 11.7416 7.87924C11.7351 7.87144 11.7304 7.8623 11.7278 7.85247C11.7252 7.84263 11.7248 7.83235 11.7267 7.82235L10.4933 7.62068ZM5.7275 9.18318C5.7172 9.0625 5.73487 8.9411 5.78065 8.82897C5.82643 8.71683 5.89818 8.61717 5.99 8.53818L5.17333 7.59068C4.93168 7.79904 4.74296 8.06181 4.62271 8.35736C4.50247 8.65292 4.45412 8.9728 4.48167 9.29068L5.7275 9.18318Z" fill="#818698"/>
</svg>
