<svg width="14" height="18" viewBox="0 0 14 18" fill="none" xmlns="http://www.w3.org/2000/svg">
<path fill-rule="evenodd" clip-rule="evenodd" d="M6.53201 0.678626C5.20148 0.761651 3.91282 1.2449 2.80228 2.07728C2.44676 2.34338 1.76056 3.031 1.49729 3.38297C0.792351 4.31452 0.330894 5.40718 0.154704 6.56204C0.0823237 7.01619 0.0681314 7.94295 0.127029 8.37014C0.319335 9.75459 0.900509 11.1461 1.85281 12.5051C2.44037 13.3424 2.99813 13.9974 3.83263 14.8283C4.57972 15.5812 5.38243 16.2767 6.23397 16.9089C6.67038 17.2332 6.78605 17.3035 6.91449 17.3255C7.10963 17.3581 7.22814 17.2992 7.75751 16.9047C8.63472 16.2604 9.45928 15.5473 10.2234 14.7723C12.3693 12.6278 13.5792 10.5047 13.873 8.37014C13.9269 7.97985 13.9198 7.07083 13.8595 6.65287C13.5189 4.29482 12.0663 2.31854 9.93319 1.31231C9.47325 1.10553 8.99503 0.942087 8.50474 0.824097C7.85626 0.690218 7.19311 0.641317 6.53201 0.678626ZM7.93704 1.79769C8.92145 1.95865 9.84844 2.36833 10.6302 2.98788C11.4119 3.60743 12.0225 4.41634 12.4041 5.33795C12.9505 6.64222 12.9895 8.14093 12.5119 9.5339C12.094 10.7559 11.2815 12.0552 10.1326 13.3417C9.39104 14.1727 7.98246 15.4528 7.19053 16.0169L6.99822 16.1539L6.67961 15.9126C5.46475 14.9894 4.15267 13.7206 3.26281 12.6087C2.06286 11.1085 1.3795 9.67086 1.19358 8.2566C1.13823 7.83296 1.15171 7.06303 1.22338 6.63868C1.3892 5.62972 1.81544 4.6815 2.45998 3.88774C3.10452 3.09398 3.94505 2.48216 4.89848 2.11276C5.23199 1.98148 5.82594 1.82891 6.16301 1.78775C6.30351 1.77072 6.4504 1.75085 6.48943 1.74447C6.65193 1.71679 7.68158 1.7544 7.93704 1.79769ZM6.75908 4.92496C6.09921 4.98627 5.48614 5.29224 5.04045 5.78271C4.59476 6.27318 4.3487 6.91265 4.35065 7.57537C4.35065 8.8399 5.20077 9.89368 6.44685 10.1747C6.77044 10.2478 7.27639 10.2421 7.60707 10.1619C8.19818 10.0186 8.75239 9.66163 9.1072 9.194C9.2995 8.94067 9.51239 8.4929 9.5869 8.18564C9.67205 7.83083 9.67276 7.31991 9.5869 6.96865C9.45514 6.40703 9.14375 5.90373 8.69999 5.53515C8.25624 5.16657 7.70434 4.95283 7.12808 4.92638C7.0052 4.91914 6.88202 4.91867 6.75908 4.92496ZM7.34665 6.01705C7.7859 6.10788 8.23437 6.46056 8.42739 6.86788C8.73181 7.50795 8.61544 8.2055 8.12296 8.69798C7.9785 8.84946 7.80408 8.96921 7.6108 9.0496C7.41753 9.12999 7.20963 9.16926 7.00035 9.1649C6.79107 9.16926 6.58318 9.12999 6.3899 9.0496C6.19663 8.96921 6.02221 8.84946 5.87774 8.69798C5.72626 8.55351 5.60651 8.37909 5.52612 8.18582C5.44573 7.99254 5.40647 7.78465 5.41082 7.57537C5.41082 7.30855 5.45481 7.11767 5.57332 6.86788C5.75995 6.47405 6.1843 6.12988 6.61078 6.02628C6.79811 5.98086 7.1515 5.97661 7.34665 6.01705Z" fill="#1C1C1E"/>
</svg>
