<svg width="224" height="32" viewBox="0 0 224 32" fill="none" xmlns="http://www.w3.org/2000/svg">
<path d="M224 19.6267C224 15.7867 221.44 13.0133 219.307 10.24C215.68 5.54667 211.627 0 211.627 0C211.627 0 207.573 5.54667 203.947 10.0267C201.813 12.8 199.467 15.7867 199.467 19.6267C199.467 26.0267 204.373 31.36 210.56 32V27.3067L206.507 24.96C206.08 24.7467 205.867 24.1067 206.293 23.68C206.507 23.2533 207.147 23.04 207.573 23.2533L210.773 25.1733V20.0533L206.72 17.7067C206.293 17.4933 206.08 16.8533 206.507 16.4267C206.72 16 207.36 15.7867 207.787 16L210.987 17.92V12.3733C210.987 11.9467 211.413 11.52 211.84 11.52C212.267 11.52 212.693 11.9467 212.693 12.3733V17.92L215.893 16C216.32 15.7867 216.747 16 217.173 16.4267C217.387 16.8533 217.173 17.4933 216.96 17.7067L212.907 20.0533V25.1733L216.107 23.2533C216.533 23.04 216.96 23.2533 217.387 23.68C217.6 24.1067 217.387 24.7467 217.173 24.96L213.12 27.3067V32C218.88 31.5733 224 26.0267 224 19.6267Z" fill="#4B8B33"/>
<path d="M10.0267 22.8265H4.26667L6.61333 16.4265C6.61333 16.2131 6.82667 15.9998 6.82667 15.7865C6.82667 15.5731 7.04 15.3598 7.04 14.9331C7.04 15.1465 7.25333 15.5731 7.25333 15.7865C7.25333 15.9998 7.46667 16.2131 7.46667 16.4265L10.0267 22.8265ZM12.8 28.5865H14.5067L8.10667 13.0131H5.97333L0 28.5865H1.70667C1.92 28.5865 2.13333 28.5865 2.13333 28.3731C2.34667 28.3731 2.34667 28.1598 2.34667 27.9465L3.84 24.1065H10.6667L12.16 27.9465C12.16 28.1598 12.3733 28.1598 12.3733 28.3731C12.3733 28.5865 12.5867 28.5865 12.8 28.5865ZM28.5867 20.2665C28.16 20.4798 27.52 20.4798 27.0933 20.4798H24.96V14.7198H27.3067C28.5867 14.7198 29.44 14.9331 30.08 15.3598C30.72 15.7865 30.9333 16.6398 30.9333 17.4931C30.9333 17.9198 30.9333 18.3465 30.72 18.7731C30.5067 19.1998 30.2933 19.4131 30.08 19.8398C29.44 20.0531 29.0133 20.2665 28.5867 20.2665ZM29.6533 22.3998C29.44 22.1865 29.2267 21.9731 29.0133 21.7598C29.6533 21.5465 30.08 21.3331 30.5067 21.1198C30.9333 20.9065 31.36 20.4798 31.7867 20.0531C32.2133 19.6265 32.4267 19.1998 32.4267 18.7731C32.64 18.3465 32.64 17.7065 32.64 17.2798C32.64 16.6398 32.4267 15.9998 32.2133 15.5731C32 14.9331 31.7867 14.5065 31.36 14.0798C30.9333 13.6531 30.2933 13.4398 29.6533 13.2265C29.0133 13.0131 28.16 13.0131 27.0933 13.0131H22.8267V28.5865H24.96V21.9731H26.4533C26.6667 21.9731 26.88 21.9731 27.0933 22.1865C27.3067 22.1865 27.3067 22.3998 27.52 22.6131L31.5733 28.1598C31.7867 28.3731 32 28.5865 32.4267 28.5865H34.3467L29.6533 22.3998ZM47.36 14.7198H52.2667V13.0131H40.32V14.7198H45.2267V28.5865H47.36V14.7198ZM84.2667 20.6931C84.2667 21.5465 84.0533 22.6131 83.84 23.2531C83.6267 24.1065 83.2 24.7465 82.7733 25.1731C82.3467 25.5998 81.7067 26.0265 81.0667 26.4531C80.4267 26.8798 79.5733 26.8798 78.9333 26.8798C78.08 26.8798 77.44 26.6665 76.8 26.4531C76.16 26.2398 75.52 25.8131 75.0933 25.1731C74.6667 24.7465 74.24 24.1065 74.0267 23.2531C73.8133 22.3998 73.6 21.5465 73.6 20.6931C73.6 19.8398 73.8133 18.7731 74.0267 18.1331C74.24 17.2798 74.6667 16.6398 75.0933 16.2131C75.52 15.7865 76.16 15.3598 76.8 14.9331C77.44 14.7198 78.2933 14.5065 78.9333 14.5065C79.7867 14.5065 80.4267 14.7198 81.0667 14.9331C81.7067 15.1465 82.3467 15.5731 82.7733 16.2131C83.2 16.6398 83.6267 17.2798 83.84 18.1331C84.0533 18.9865 84.2667 19.8398 84.2667 20.6931ZM85.76 24.1065C86.1867 23.0398 86.4 21.9731 86.4 20.9065C86.4 19.8398 86.1867 18.5598 85.76 17.7065C85.3333 16.6398 84.9067 15.7865 84.2667 15.1465C83.6267 14.5065 82.7733 13.8665 81.92 13.4398C80.8533 13.0131 80 12.7998 78.72 12.7998C77.6533 12.7998 76.5867 13.0131 75.7333 13.4398C74.88 13.8665 74.0267 14.2931 73.3867 15.1465C72.7467 15.7865 72.32 16.6398 71.8933 17.7065C71.4667 18.7731 71.2533 19.8398 71.2533 20.9065C71.2533 21.9731 71.4667 23.2531 71.8933 24.1065C72.32 25.1731 72.7467 26.0265 73.3867 26.6665C74.0267 27.3065 74.88 27.9465 75.7333 28.3731C76.5867 28.7998 77.6533 29.0131 78.72 29.0131C79.7867 29.0131 80.8533 28.7998 81.7067 28.3731C82.56 27.9465 83.4133 27.5198 84.0533 26.6665C84.9067 25.8131 85.3333 24.9598 85.76 24.1065ZM97.7067 14.7198H104.96V13.0131H95.5733V28.5865H97.7067V21.9731H103.893V20.0531H97.7067V14.7198ZM130.347 14.7198H135.253V13.0131H123.307V14.7198H128.213V28.5865H130.347V14.7198ZM145.92 26.8798V21.5465H151.893V19.8398H145.92V14.7198H153.173V13.0131H143.787V28.5865H153.173V26.8798H145.92ZM170.667 22.8265H164.907L167.253 16.4265C167.253 16.2131 167.467 15.9998 167.467 15.7865C167.467 15.5731 167.68 15.3598 167.68 14.9331C167.68 15.1465 167.893 15.5731 167.893 15.7865C167.893 15.9998 168.107 16.2131 168.107 16.4265L170.667 22.8265ZM174.933 28.5865L168.747 13.0131H166.613L160.427 28.5865H161.92C162.133 28.5865 162.347 28.5865 162.347 28.3731C162.56 28.3731 162.56 28.1598 162.56 27.9465L164.053 24.1065H170.88L172.373 27.9465C172.373 28.1598 172.587 28.1598 172.587 28.3731C172.8 28.3731 172.8 28.5865 173.013 28.5865H174.933Z" fill="black"/>
</svg>
