<svg width="53" height="68" viewBox="0 0 53 68" fill="none" xmlns="http://www.w3.org/2000/svg">
<path d="M52.15 42.4056C52.15 34.2547 46.716 28.3679 42.1877 22.4811C34.4896 12.5188 26.3387 0.745239 26.3387 0.745239C26.3387 0.745239 17.7349 12.5188 10.0368 22.0283C5.50848 27.915 0.527344 34.2547 0.527344 42.4056C0.527344 55.9905 10.9424 67.3113 24.0745 68.6698V58.7075L15.4707 53.7264C14.5651 53.2735 14.1122 51.9151 15.0179 51.0094C15.4707 50.1037 16.8292 49.6509 17.7349 50.1037L24.5273 54.1792V43.3113L15.4707 38.3301C14.5651 37.8773 14.5651 36.5188 15.0179 35.6132C15.4707 34.7075 16.8292 34.2547 17.7349 34.7075L24.5273 38.783V27.0094C24.5273 26.1037 25.433 25.1981 26.3387 25.1981C27.2443 25.1981 28.15 26.1037 28.15 27.0094V38.783L34.9424 34.7075C35.8481 34.2547 36.7538 34.7075 37.6594 35.6132C38.1122 36.5188 37.6594 37.8773 37.2066 38.3301L28.15 43.3113V54.1792L34.9424 50.1037C35.8481 49.6509 36.7538 50.1037 37.6594 51.0094C38.1122 51.9151 37.6594 53.2735 37.2066 53.7264L28.6028 58.7075V68.6698C41.2821 67.7641 52.15 55.9905 52.15 42.4056Z" fill="#4B8B33"/>
</svg>
