<svg width="42" height="32" viewBox="0 0 42 32" fill="none" xmlns="http://www.w3.org/2000/svg">
<path d="M7.64116 30.9314V28.8739C7.64116 28.0851 7.13631 27.5708 6.27098 27.5708C5.8384 27.5708 5.36969 27.708 5.04517 28.1538C4.79292 27.7766 4.43243 27.5708 3.89162 27.5708C3.53097 27.5708 3.17065 27.6736 2.8821 28.0509V27.6394H2.125V30.9314H2.8821V29.1139C2.8821 28.5311 3.20662 28.2566 3.71146 28.2566C4.21598 28.2566 4.46856 28.5653 4.46856 29.1139V30.9314H5.22566V29.1139C5.22566 28.5311 5.58598 28.2566 6.05469 28.2566C6.55954 28.2566 6.81179 28.5653 6.81179 29.1139V30.9314H7.64116ZM18.8533 27.6394H17.6276V26.645H16.8705V27.6394H16.1855V28.2908H16.8704V29.7998C16.8704 30.5543 17.1949 31 18.0602 31C18.3848 31 18.7451 30.8972 18.9977 30.76L18.7812 30.1427C18.5649 30.2798 18.3127 30.3142 18.1323 30.3142C17.7718 30.3142 17.6276 30.1085 17.6276 29.7654V28.2908H18.8533V27.6394ZM25.2707 27.5707C24.8382 27.5707 24.5498 27.7766 24.3695 28.0509V27.6394H23.6124V30.9314H24.3695V29.0797C24.3695 28.5311 24.6217 28.2224 25.0904 28.2224C25.2346 28.2224 25.4149 28.2568 25.5591 28.291L25.7754 27.6052C25.6312 27.5708 25.4149 27.5708 25.2707 27.5708V27.5707ZM15.5726 27.9137C15.212 27.6736 14.7073 27.5708 14.1665 27.5708C13.3013 27.5708 12.7246 27.9823 12.7246 28.6338C12.7246 29.1826 13.1571 29.4911 13.9142 29.5941L14.2747 29.6284C14.6713 29.6969 14.8876 29.7998 14.8876 29.9713C14.8876 30.2113 14.5992 30.3828 14.0944 30.3828C13.5897 30.3828 13.1931 30.2113 12.9407 30.0399L12.5802 30.5885C12.9768 30.8628 13.5176 31 14.0583 31C15.0678 31 15.6447 30.5543 15.6447 29.937C15.6447 29.354 15.176 29.0453 14.4549 28.9425L14.0944 28.9082C13.7699 28.8738 13.5176 28.8054 13.5176 28.5996C13.5176 28.3595 13.7699 28.2224 14.1665 28.2224C14.5992 28.2224 15.0318 28.3938 15.2481 28.4967L15.5726 27.9137ZM35.69 27.5708C35.2572 27.5708 34.9689 27.7766 34.7885 28.0509V27.6394H34.0314V30.9314H34.7885V29.0797C34.7885 28.5311 35.041 28.2224 35.5095 28.2224C35.6539 28.2224 35.8342 28.2568 35.9784 28.291L36.1947 27.6052C36.0505 27.5708 35.8342 27.5708 35.69 27.5708ZM26.0278 29.2854C26.0278 30.2798 26.7488 31 27.8666 31C28.3712 31 28.7317 30.8972 29.0922 30.6229L28.7317 30.0399C28.4433 30.2456 28.155 30.3484 27.8304 30.3484C27.2175 30.3484 26.7849 29.937 26.7849 29.2854C26.7849 28.6682 27.2175 28.2566 27.8304 28.2224C28.155 28.2224 28.4433 28.3252 28.7317 28.5311L29.0922 27.9481C28.7317 27.6736 28.3712 27.5708 27.8666 27.5708C26.7488 27.5708 26.0278 28.291 26.0278 29.2854ZM33.0221 29.2854V27.6394H32.265V28.0509C32.0126 27.7424 31.6521 27.5708 31.1834 27.5708C30.21 27.5708 29.4529 28.291 29.4529 29.2854C29.4529 30.2798 30.21 31 31.1834 31C31.688 31 32.0487 30.8286 32.265 30.5199V30.9314H33.0221V29.2854ZM30.2459 29.2854C30.2459 28.7024 30.6425 28.2224 31.2914 28.2224C31.9043 28.2224 32.3371 28.6682 32.3371 29.2854C32.3371 29.8684 31.9043 30.3484 31.2914 30.3484C30.6425 30.3141 30.2459 29.8684 30.2459 29.2854ZM21.1969 27.5708C20.1873 27.5708 19.4662 28.2566 19.4662 29.2854C19.4662 30.3142 20.1872 31 21.2328 31C21.7375 31 22.2423 30.8628 22.639 30.5543L22.2783 30.0399C21.9899 30.2456 21.6294 30.3828 21.269 30.3828C20.8002 30.3828 20.3315 30.1771 20.2233 29.5939H22.7832V29.3198C22.8193 28.2566 22.1703 27.5708 21.1967 27.5708H21.1969ZM21.1969 28.188C21.6654 28.188 21.9901 28.4625 22.062 28.9769H20.2594C20.3315 28.5311 20.656 28.188 21.1969 28.188ZM39.9802 29.2854V26.3363H39.2231V28.0509C38.9706 27.7424 38.6102 27.5708 38.1414 27.5708C37.1681 27.5708 36.411 28.291 36.411 29.2854C36.411 30.2798 37.1681 31 38.1414 31C38.6463 31 39.0068 30.8286 39.2231 30.5199V30.9314H39.9802V29.2854ZM37.2042 29.2854C37.2042 28.7024 37.6006 28.2224 38.2497 28.2224C38.8626 28.2224 39.2952 28.6682 39.2952 29.2854C39.2952 29.8684 38.8626 30.3484 38.2497 30.3484C37.6006 30.3141 37.2042 29.8684 37.2042 29.2854ZM11.8952 29.2854V27.6394H11.1381V28.0509C10.8857 27.7424 10.5252 27.5708 10.0565 27.5708C9.08309 27.5708 8.32599 28.291 8.32599 29.2854C8.32599 30.2798 9.08309 31 10.0565 31C10.5613 31 10.9218 30.8286 11.1381 30.5199V30.9314H11.8952V29.2854ZM9.08309 29.2854C9.08309 28.7024 9.47971 28.2224 10.1286 28.2224C10.7415 28.2224 11.1742 28.6682 11.1742 29.2854C11.1742 29.8684 10.7415 30.3484 10.1286 30.3484C9.47971 30.3141 9.08309 29.8684 9.08309 29.2854Z" fill="black"/>
<path d="M15.3242 2.64044H26.6807V22.0498H15.3242V2.64044Z" fill="#FF5F00"/>
<path d="M16.0435 12.3452C16.0435 8.40164 17.9902 4.90377 20.9825 2.64043C18.7835 0.994437 16.0075 0 12.9791 0C5.80438 0 0 5.52095 0 12.3452C0 19.1692 5.80438 24.6904 12.9789 24.6904C16.0073 24.6904 18.7833 23.6959 20.9825 22.0498C17.9902 19.8208 16.0435 16.2887 16.0435 12.3452Z" fill="#EB001B"/>
<path d="M41.9981 12.3452C41.9981 19.1692 36.1938 24.6904 29.0192 24.6904C25.9908 24.6904 23.2148 23.6959 21.0156 22.0498C24.044 19.7866 25.9548 16.2887 25.9548 12.3452C25.9548 8.40164 24.0079 4.90377 21.0156 2.64043C23.2147 0.994437 25.9908 0 29.0192 0C36.1938 0 41.9983 5.55532 41.9983 12.3452H41.9981Z" fill="#F79E1B"/>
</svg>
