<svg width="72" height="24" viewBox="0 0 72 24" fill="none" xmlns="http://www.w3.org/2000/svg">
<rect x="0.571411" width="71" height="24" rx="4" fill="#66B342"/>
<path d="M13.1194 6.662V10.302H17.1234V6.662H18.5514V16H17.1234V11.646H13.1194V16H11.6914V6.662H13.1194ZM21.1329 10.834C21.7395 10.246 22.4909 9.952 23.3869 9.952C24.2829 9.952 25.0295 10.246 25.6269 10.834C26.2335 11.4127 26.5369 12.1547 26.5369 13.06C26.5369 13.956 26.2335 14.7027 25.6269 15.3C25.0295 15.888 24.2829 16.182 23.3869 16.182C22.4909 16.182 21.7395 15.888 21.1329 15.3C20.5355 14.7027 20.2369 13.956 20.2369 13.06C20.2369 12.1547 20.5355 11.4127 21.1329 10.834ZM22.1129 14.446C22.4302 14.782 22.8549 14.95 23.3869 14.95C23.9189 14.95 24.3435 14.782 24.6609 14.446C24.9782 14.1007 25.1369 13.6433 25.1369 13.074C25.1369 12.4487 24.9642 11.9773 24.6189 11.66C24.2829 11.3427 23.8722 11.184 23.3869 11.184C22.9015 11.184 22.4862 11.3427 22.1409 11.66C21.8049 11.9773 21.6369 12.4487 21.6369 13.074C21.6369 13.6433 21.7955 14.1007 22.1129 14.446ZM27.9687 10.106H30.2787C30.8667 10.106 31.3147 10.2227 31.6227 10.456C31.9867 10.7453 32.1687 11.1233 32.1687 11.59C32.1687 12.122 31.9354 12.5047 31.4687 12.738C31.7674 12.794 32.0334 12.9247 32.2667 13.13C32.5747 13.41 32.7287 13.788 32.7287 14.264C32.7287 14.8333 32.514 15.2813 32.0847 15.608C31.73 15.8693 31.2774 16 30.7267 16H27.9687V10.106ZM29.3407 12.402H30.0407C30.2834 12.402 30.4654 12.36 30.5867 12.276C30.764 12.164 30.8527 12.0053 30.8527 11.8C30.8527 11.604 30.7734 11.45 30.6147 11.338C30.5027 11.2633 30.302 11.226 30.0127 11.226H29.3407V12.402ZM29.3407 14.88H30.3627C30.6707 14.88 30.9087 14.824 31.0767 14.712C31.2634 14.5907 31.3567 14.418 31.3567 14.194C31.3567 13.9513 31.268 13.7787 31.0907 13.676C30.932 13.5733 30.7034 13.522 30.4047 13.522H29.3407V14.88ZM34.1621 10.106H35.5341V13.452L39.5661 9.574V16H38.1941V12.57L34.1621 16.448V10.106ZM41.2988 16V10.106H42.6708V12.29H45.1068V10.106H46.4788V16H45.1068V13.55H42.6708V16H41.2988ZM48.2168 10.106H49.5888V12.206L51.5488 10.106H53.3688L50.7928 12.682L53.5088 16H51.7728L49.8128 13.578L49.5888 13.802V16H48.2168V10.106ZM58.7221 10.792V10.106H60.0941V16H58.7221V15.384C58.2648 15.916 57.6768 16.182 56.9581 16.182C56.0901 16.182 55.3948 15.874 54.8721 15.258C54.3588 14.642 54.1021 13.9047 54.1021 13.046C54.1021 12.1127 54.3774 11.366 54.9281 10.806C55.4881 10.2367 56.1694 9.952 56.9721 9.952C57.7094 9.952 58.2928 10.232 58.7221 10.792ZM57.1401 11.184C56.6548 11.184 56.2581 11.366 55.9501 11.73C55.6514 12.094 55.5021 12.542 55.5021 13.074C55.5021 13.5967 55.6514 14.04 55.9501 14.404C56.2581 14.768 56.6548 14.95 57.1401 14.95C57.6068 14.95 57.9988 14.7867 58.3161 14.46C58.6428 14.1333 58.8061 13.676 58.8061 13.088C58.8061 12.4813 58.6428 12.0147 58.3161 11.688C57.9988 11.352 57.6068 11.184 57.1401 11.184Z" fill="white"/>
</svg>
