<svg width="8" height="12" viewBox="0 0 8 12" fill="none" xmlns="http://www.w3.org/2000/svg">
<path fill-rule="evenodd" clip-rule="evenodd" d="M7.12933 5.83342C7.10267 5.74175 6.521 5.14175 4.43933 3.06092C1.521 0.142584 1.681 0.282584 1.36267 0.367584C1.1785 0.417584 0.917666 0.678417 0.867666 0.862584C0.782666 1.17842 0.672666 1.05092 3.261 3.64175L5.616 6.00008L3.261 8.35842C0.672666 10.9492 0.782666 10.8218 0.867666 11.1376C0.917666 11.3218 1.1785 11.5826 1.36267 11.6326C1.68017 11.7176 1.526 11.8518 4.3935 8.98925C5.82933 7.55592 7.03183 6.33842 7.066 6.28342C7.10626 6.21652 7.13262 6.14219 7.1435 6.06487C7.15438 5.98755 7.14956 5.90883 7.12933 5.83342Z" fill="#468C25"/>
</svg>
