<svg width="71" height="49" viewBox="0 0 71 49" fill="none" xmlns="http://www.w3.org/2000/svg">
<path d="M35.6904 0.49585H36.0849C39.7289 0.5086 58.1925 0.6361 63.1708 1.9196C64.6757 2.31132 66.0471 3.07485 67.1479 4.13388C68.2487 5.19292 69.0402 6.51038 69.4435 7.9546C69.8912 9.5696 70.206 11.7073 70.4188 13.9131L70.4631 14.3551L70.5606 15.4601L70.5961 15.9021C70.8842 19.7866 70.9197 23.4246 70.9241 24.2193V24.5381C70.9197 25.3626 70.8798 29.2471 70.5606 33.2931L70.5252 33.7393L70.4853 34.1814C70.2636 36.6124 69.9356 39.0264 69.4435 40.8028C69.0415 42.2476 68.2503 43.5657 67.1494 44.625C66.0484 45.6842 64.6764 46.4473 63.1708 46.8379C58.0284 48.1639 38.4832 48.2574 35.7746 48.2616H35.1451C33.7753 48.2616 28.1099 48.2361 22.1696 48.0406L21.416 48.0151L21.0303 47.9981L20.2723 47.9683L19.5142 47.9386C14.5936 47.7304 9.90784 47.3946 7.74895 46.8336C6.24389 46.4434 4.8722 45.6809 3.77129 44.6225C2.67039 43.5641 1.87893 42.2469 1.4762 40.8028C0.984134 39.0306 0.656089 36.6124 0.434438 34.1814L0.398973 33.7351L0.363509 33.2931C0.144728 30.4133 0.0234945 27.5274 0 24.6401L0 24.1173C0.00886607 23.2036 0.0443304 20.0458 0.283714 16.5608L0.314746 16.1231L0.328045 15.9021L0.363509 15.4601L0.461036 14.3551L0.505366 13.9131C0.718152 11.7073 1.0329 9.56535 1.48063 7.9546C1.88268 6.5098 2.67384 5.19172 3.77479 4.1325C4.87574 3.07328 6.24779 2.31014 7.75338 1.9196C9.91227 1.3671 14.598 1.0271 19.5187 0.814599L20.2723 0.784849L21.0348 0.75935L21.416 0.7466L22.174 0.71685C26.393 0.586692 30.6137 0.514434 34.8348 0.5001L35.6904 0.49585ZM28.3714 14.1383V34.6149L46.7996 24.3808L28.3714 14.1383Z" fill="white"/>
</svg>
