<svg width="24" height="24" viewBox="0 0 24 24" fill="none" xmlns="http://www.w3.org/2000/svg">
<path fill-rule="evenodd" clip-rule="evenodd" d="M11.712 4.31982C11.509 4.41382 11.341 4.59182 11.291 4.76682C11.267 4.85082 11.252 6.12182 11.252 8.07382V11.2438L8.06202 11.2448C5.05402 11.2458 4.86302 11.2498 4.71002 11.3188C4.14602 11.5748 4.11102 12.3678 4.65002 12.6428C4.80502 12.7218 4.87702 12.7238 8.03002 12.7238H11.252L11.253 15.9338C11.254 18.9828 11.258 19.1518 11.329 19.3088C11.37 19.3988 11.464 19.5198 11.538 19.5758C11.668 19.6748 11.973 19.7718 12.067 19.7438C12.1181 19.7303 12.1694 19.718 12.221 19.7068C12.357 19.6768 12.594 19.4728 12.684 19.3078C12.746 19.1948 12.753 18.9048 12.763 15.9538L12.774 12.7238H15.974C19.453 12.7238 19.321 12.7318 19.539 12.4988C19.6115 12.4194 19.6661 12.3253 19.6989 12.2229C19.7317 12.1205 19.7421 12.0122 19.7293 11.9054C19.7164 11.7986 19.6808 11.6959 19.6246 11.6041C19.5685 11.5124 19.4933 11.4338 19.404 11.3738L19.238 11.2638L16.005 11.2528L12.772 11.2428L12.771 8.13282C12.77 6.14182 12.755 4.95982 12.729 4.84482C12.619 4.36982 12.139 4.12182 11.712 4.31982Z" fill="#818698"/>
</svg>
