<svg width="24" height="24" viewBox="0 0 24 24" fill="none" xmlns="http://www.w3.org/2000/svg">
<path fill-rule="evenodd" clip-rule="evenodd" d="M11.9993 22.2455C6.34091 22.2455 1.75391 17.6585 1.75391 12.0001C1.75391 6.34164 6.34091 1.75464 11.9993 1.75464C17.6578 1.75464 22.2448 6.34164 22.2448 12.0001C22.2448 17.6585 17.6578 22.2455 11.9993 22.2455ZM11.9993 3.39435C16.7522 3.39435 20.6055 7.24721 20.6055 12.0005C20.6055 16.7534 16.7526 20.6066 11.9993 20.6066C7.24648 20.6066 3.39319 16.7538 3.39319 12.0005C3.39173 10.8394 3.62589 9.69015 4.08152 8.62221C4.53714 7.55428 5.20474 6.58991 6.04391 5.7875C6.10562 5.72835 6.18533 5.65592 6.28305 5.57021L6.32248 5.53978C6.405 5.4839 6.50549 5.46104 6.60407 5.47572C6.70264 5.49041 6.79211 5.54156 6.85476 5.61907L6.86291 5.62892C6.92926 5.71111 6.96131 5.81575 6.95237 5.92099C6.94342 6.02624 6.89418 6.12397 6.81491 6.19378C6.73759 6.26129 6.66185 6.3306 6.58776 6.40164C5.83537 7.12687 5.23714 7.99655 4.82894 8.95855C4.42074 9.92054 4.21097 10.955 4.21219 12.0001C4.21219 16.3004 7.69862 19.7868 11.9989 19.7868C16.2992 19.7868 19.786 16.3004 19.786 12.0001C19.786 7.69978 16.2996 4.21335 11.9993 4.21335V7.90164C11.9993 7.95547 11.9887 8.00878 11.9681 8.05851C11.9475 8.10825 11.9173 8.15344 11.8793 8.1915C11.8412 8.22957 11.796 8.25976 11.7463 8.28036C11.6965 8.30096 11.6432 8.31157 11.5894 8.31157C11.5356 8.31157 11.4823 8.30096 11.4325 8.28036C11.3828 8.25976 11.3376 8.22957 11.2995 8.1915C11.2615 8.15344 11.2313 8.10825 11.2107 8.05851C11.1901 8.00878 11.1795 7.95547 11.1795 7.90164V3.80364C11.1795 3.74361 11.1926 3.68431 11.218 3.62994C11.2435 3.57556 11.2805 3.52743 11.3266 3.48896C11.3727 3.45049 11.4266 3.42261 11.4847 3.4073C11.5427 3.39199 11.6034 3.38962 11.6625 3.40035C11.7739 3.39607 11.8866 3.39435 11.9993 3.39435ZM7.29834 7.90207C6.94691 7.39978 7.46934 6.87735 7.97119 7.22921L13.285 10.9351C14.2395 11.5981 14.3998 12.7231 13.6065 13.5464C12.7926 14.3401 11.668 14.1691 11.005 13.2151L7.29834 7.90207Z" fill="#468C25"/>
</svg>
