<svg width="24" height="24" viewBox="0 0 24 24" fill="none" xmlns="http://www.w3.org/2000/svg">
<path d="M20.1009 14.2667C20.1009 11.8667 18.5009 10.1333 17.1676 8.4C14.9009 5.46667 12.3676 2 12.3676 2C12.3676 2 9.83424 5.46667 7.56758 8.26667C6.23424 10 4.76758 11.8667 4.76758 14.2667C4.76758 18.2667 7.83424 21.6 11.7009 22V19.0667L9.16758 17.6C8.90092 17.4667 8.76757 17.0667 9.03424 16.8C9.16757 16.5333 9.56758 16.4 9.83425 16.5333L11.8342 17.7333V14.5333L9.30091 13.0667C9.03425 12.9333 8.90092 12.5333 9.16758 12.2667C9.30092 12 9.70091 11.8667 9.96758 12L11.9676 13.2V9.73333C11.9676 9.46667 12.2342 9.2 12.5009 9.2C12.7676 9.2 13.0342 9.46667 13.0342 9.73333V13.2L15.0342 12C15.3009 11.8667 15.5676 12 15.8342 12.2667C15.9676 12.5333 15.8342 12.9333 15.7009 13.0667L13.1676 14.5333V17.7333L15.1676 16.5333C15.4342 16.4 15.7009 16.5333 15.9676 16.8C16.1009 17.0667 15.9676 17.4667 15.8342 17.6L13.3009 19.0667V22C16.9009 21.7333 20.1009 18.2667 20.1009 14.2667Z" fill="#468C25"/>
</svg>
