<svg width="24" height="24" viewBox="0 0 24 24" fill="none" xmlns="http://www.w3.org/2000/svg">
<path d="M12.6503 5.32916C12.7273 5.15895 12.7604 4.97215 12.7466 4.78584C12.7328 4.59953 12.6724 4.41966 12.5712 4.26267C12.4699 4.10569 12.3309 3.97659 12.1668 3.8872C12.0028 3.79781 11.8189 3.75098 11.6321 3.75098C11.4453 3.75098 11.2615 3.79781 11.0974 3.8872C10.9334 3.97659 10.7944 4.10569 10.6931 4.26267C10.5918 4.41966 10.5315 4.59953 10.5177 4.78584C10.5039 4.97215 10.537 5.15895 10.614 5.32916C9.27164 5.54079 8.02982 6.16918 7.06425 7.12541H5.8125C5.505 7.12541 5.25 7.38041 5.25 7.68791C5.25 7.99541 5.505 8.25041 5.8125 8.25041H5.865L4.6545 11.1619L4.5375 11.1004C4.37847 11.0177 4.24532 10.8927 4.1527 10.7392C4.06008 10.5857 4.01157 10.4097 4.0125 10.2304V8.64791C4.0125 8.43041 3.8325 8.25041 3.615 8.25041H1.8975C1.68 8.25041 1.5 8.43041 1.5 8.64791V12.4429C1.5 14.0929 2.175 15.6754 3.375 16.8154L6.13875 19.4419C6.26625 19.5732 6.39675 19.6992 6.5325 19.8207V19.8229H6.53475C7.06303 20.2962 7.65504 20.693 8.2935 21.0019L7.5675 21.7054C7.2675 21.9979 7.4775 22.5004 7.89 22.5004H15.3225C15.735 22.5004 15.9375 21.9979 15.645 21.7054L14.9175 21.0004H14.8688C16.5019 20.2096 17.7973 18.8594 18.5198 17.1949C19.6281 17.0217 20.6382 16.4583 21.3679 15.6063C22.0977 14.7543 22.4992 13.6697 22.5 12.5479C22.5 11.806 22.2053 11.0944 21.6806 10.5698C21.156 10.0451 20.4444 9.75041 19.7025 9.75041C19.1295 9.75041 18.582 9.92741 18.1245 10.2402L17.295 8.25041H17.445C17.7525 8.25041 18.0075 7.99541 18.0075 7.68791C18.0075 7.38041 17.7525 7.12541 17.445 7.12541H16.2015C15.2355 6.1689 13.9931 5.54049 12.6503 5.32916ZM19.0267 15.5044C19.2494 14.2299 19.1436 12.9197 18.7192 11.6974C18.963 11.4177 19.3193 11.2504 19.7025 11.2504C20.415 11.2504 21 11.8354 21 12.5479C21 13.8754 20.1825 15.0199 19.0267 15.5044Z" fill="#468C25"/>
</svg>
