<svg width="20" height="20" viewBox="0 0 20 20" fill="none" xmlns="http://www.w3.org/2000/svg">
<path fill-rule="evenodd" clip-rule="evenodd" d="M7.80299 0.0262405C6.82586 0.157454 6.03114 0.823758 5.70543 1.78134C5.61609 2.04376 5.56956 2.51278 5.56956 3.14V3.70673L3.51296 3.7179C1.57174 3.7272 1.44797 3.73186 1.31211 3.79979C1.21762 3.85239 1.13529 3.92434 1.07051 4.01093C1.00572 4.09753 0.959938 4.19681 0.936147 4.30231C0.880312 4.62802 1.10924 4.99653 1.42006 5.08215C1.50102 5.10541 1.83975 5.12402 2.17197 5.12402H2.77593L2.78803 11.48C2.80012 18.2696 2.79082 17.928 2.98996 18.4129C3.14916 18.7987 3.39998 19.1399 3.72071 19.4069C4.04144 19.674 4.42242 19.8589 4.83067 19.9456C5.17779 20.0181 14.8206 20.0181 15.1677 19.9456C15.5755 19.8579 15.9561 19.6727 16.2766 19.4057C16.5972 19.1388 16.8483 18.7981 17.0084 18.4129C17.2075 17.928 17.1982 18.2696 17.2103 11.48L17.2224 5.12402H17.8264C18.1586 5.12402 18.4973 5.10541 18.5783 5.08215C18.7756 5.02817 18.9887 4.80948 19.0436 4.60661C19.1264 4.29859 19.0157 4.0129 18.7421 3.83236L18.5848 3.72814L16.5115 3.71697L14.439 3.70673L14.4176 2.93527C14.3953 2.11449 14.373 1.96839 14.2166 1.58777C13.9049 0.82748 13.2544 0.273778 12.4187 0.0560195C12.214 0.00297574 8.17243 -0.0230809 7.80299 0.0262405ZM12.2884 1.47889C12.5658 1.58312 12.8328 1.8502 12.9371 2.12752C13.005 2.30991 13.0143 2.41693 13.0143 3.02275V3.70952H6.98406V3.02275C6.98406 2.19638 7.02687 2.0326 7.32094 1.73853C7.6634 1.39607 7.58616 1.40538 9.98801 1.40352C12.0214 1.40166 12.0865 1.40352 12.2884 1.47889ZM15.8061 11.3944C15.8061 17.661 15.8061 17.6656 15.7288 17.8731C15.669 18.0187 15.5808 18.151 15.4695 18.2624C15.3581 18.3737 15.2258 18.4619 15.0802 18.5218C14.8736 18.599 14.8485 18.599 9.99918 18.599C5.14987 18.599 5.12474 18.599 4.91815 18.5218C4.77253 18.4619 4.64023 18.3737 4.5289 18.2624C4.41757 18.151 4.32941 18.0187 4.26953 17.8731C4.19229 17.6656 4.19229 17.661 4.19229 11.3944V5.12402H15.8061V11.3944ZM7.95839 8.40715C7.72668 8.45833 7.52567 8.67051 7.47169 8.91898C7.41493 9.18606 7.41493 14.537 7.47169 14.804C7.62431 15.5159 8.65727 15.5085 8.80616 14.7938C8.83501 14.6533 8.84432 13.7413 8.83687 11.748L8.82664 8.90223L8.74381 8.74682C8.6247 8.52534 8.49907 8.44437 8.17522 8.38202C8.10216 8.38086 8.02926 8.38931 7.95839 8.40715ZM11.6808 8.40715C11.449 8.45833 11.248 8.67051 11.1941 8.91898C11.1373 9.18606 11.1373 14.537 11.1941 14.804C11.3467 15.5159 12.3796 15.5085 12.5285 14.7938C12.5574 14.6533 12.5667 13.7413 12.5592 11.748L12.549 8.90223L12.4662 8.74682C12.3471 8.52534 12.2214 8.44437 11.8976 8.38202C11.8245 8.38086 11.7516 8.38931 11.6808 8.40715Z" fill="#818698"/>
</svg>
