<svg width="57" height="24" viewBox="0 0 57 24" fill="none" xmlns="http://www.w3.org/2000/svg">
<rect x="0.142822" width="56" height="24" rx="4" fill="#F03434"/>
<path d="M17.7308 16L16.7508 13.746H12.7608L11.7388 16H10.1988L14.8468 6.116L19.2708 16H17.7308ZM13.3488 12.402H16.1768L14.7908 9.238L13.3488 12.402ZM20.1983 10.106H21.5703V12.206L23.5303 10.106H25.3503L22.7743 12.682L25.4903 16H23.7543L21.7943 13.578L21.5703 13.802V16H20.1983V10.106ZM26.3917 16V10.106H27.7637V14.74H30.0877V10.106H31.4597V14.74H32.4397V17.68H31.1797V16H26.3917ZM33.419 10.106H34.791V13.452L38.823 9.574V16H37.451V12.57L33.419 16.448V10.106ZM39.7997 16L41.6477 13.662C41.2837 13.606 40.9711 13.4567 40.7097 13.214C40.3831 12.8967 40.2197 12.4907 40.2197 11.996C40.2197 11.436 40.4017 10.9833 40.7657 10.638C41.1391 10.2833 41.7084 10.106 42.4737 10.106H44.6717V16H43.2997V13.83H43.0197L41.4097 16H39.7997ZM43.2997 12.71V11.282H42.5017C42.1751 11.282 41.9371 11.324 41.7877 11.408C41.5637 11.548 41.4517 11.744 41.4517 11.996C41.4517 12.248 41.5451 12.4393 41.7317 12.57C41.8717 12.6633 42.1237 12.71 42.4877 12.71H43.2997Z" fill="white"/>
</svg>
