<svg width="20" height="18" viewBox="0 0 20 18" fill="none" xmlns="http://www.w3.org/2000/svg">
<path fill-rule="evenodd" clip-rule="evenodd" d="M8.48717 0.685308C7.04739 0.81978 5.73779 1.3354 4.54895 2.23473C4.21663 2.48654 3.55283 3.14092 3.28475 3.48181C2.46421 4.52589 1.95459 5.70359 1.73276 7.07229C1.64711 7.59561 1.64711 8.70736 1.73276 9.23069C2.03253 11.0747 2.90189 12.6499 4.26973 13.8276C5.76948 15.1183 7.79169 15.7847 9.71369 15.6211C11.18 15.4969 12.5753 14.9659 13.6845 14.1102C13.8292 13.9989 13.9603 13.9072 13.9757 13.9072C13.9911 13.9072 14.7508 14.655 15.6647 15.5688C17.4582 17.3632 17.4548 17.3607 17.7717 17.3247C17.8674 17.313 17.9592 17.2797 18.0402 17.2273C18.1212 17.1749 18.1892 17.1049 18.2392 17.0224C18.2891 16.94 18.3197 16.8472 18.3287 16.7512C18.3376 16.6552 18.3247 16.5584 18.2908 16.4682C18.2462 16.3525 17.8882 15.9765 16.5589 14.6472L14.8827 12.9711L15.0643 12.7458C15.824 11.8019 16.3679 10.524 16.5743 9.19643C16.6548 8.68338 16.6548 7.62302 16.5752 7.10655C16.2403 4.9293 15.0883 3.1058 13.2896 1.90669C12.3649 1.29049 11.3134 0.890049 10.213 0.734986C9.6405 0.665454 9.06277 0.648824 8.48717 0.685308ZM10.4083 2.066C11.7667 2.35464 13.0078 3.09038 13.8695 4.11734C14.5583 4.92936 15.0278 5.90422 15.2332 6.94908C15.4386 7.99393 15.3731 9.07398 15.0429 10.0863C14.899 10.5326 14.4896 11.3428 14.2104 11.7317C13.5271 12.6889 12.5887 13.435 11.5021 13.8849C10.1235 14.4517 8.58674 14.5019 7.17415 14.0263C4.94466 13.2811 3.34642 11.3591 3.00296 9.00799C2.91902 8.43413 2.95071 7.43031 3.06891 6.87872C3.53485 4.71603 5.10054 2.94906 7.16216 2.25871C7.88505 2.01718 8.35784 1.95208 9.27516 1.96664C9.88842 1.97607 10.0554 1.99063 10.4083 2.066Z" fill="#818698"/>
</svg>
