<svg width="20" height="20" viewBox="0 0 20 20" fill="none" xmlns="http://www.w3.org/2000/svg">
<path fill-rule="evenodd" clip-rule="evenodd" d="M13.2608 1.70999C12.4955 1.81296 11.77 2.11257 11.1551 2.57958C10.8423 2.81355 9.44238 4.17293 9.29264 4.38896C9.11092 4.65179 9.20607 4.97935 9.52661 5.19149C9.5922 5.2394 9.66873 5.27014 9.74924 5.28091C9.82975 5.29167 9.91167 5.28211 9.98754 5.2531C10.0336 5.23516 10.4461 4.85223 10.9039 4.40066C11.793 3.52561 12.0395 3.32907 12.5129 3.12162C12.9798 2.91499 13.4882 2.81904 13.9983 2.84123C14.5084 2.86343 15.0065 3.00319 15.4537 3.2496C15.9009 3.496 16.2852 3.8424 16.5765 4.26177C16.8678 4.68113 17.0582 5.16213 17.133 5.66723C17.2563 6.46897 17.0558 7.32765 16.5801 8.03736C16.4319 8.25885 13.9838 10.7374 13.632 11.0221C13.2194 11.3526 12.7343 11.5806 12.2165 11.6873C11.832 11.7669 11.1129 11.7505 10.7495 11.6538C10.0644 11.4726 9.45286 11.0822 9.00018 10.537C8.75763 10.2484 8.64376 10.1727 8.45268 10.1727C8.13604 10.172 7.77728 10.5455 7.83422 10.8177C7.89973 11.1351 8.4753 11.7567 9.07427 12.1584C10.4141 13.0568 12.105 13.1621 13.5728 12.4384C14.146 12.1553 14.3386 11.9923 15.751 10.5892C16.4857 9.86 17.1658 9.16822 17.2625 9.05202C18.43 7.65131 18.6601 5.78187 17.8646 4.15889C17.2531 2.91182 16.024 1.98451 14.6646 1.7443C14.2731 1.67489 13.6055 1.65929 13.2608 1.70999ZM7.98864 7.09679C7.33696 7.16387 6.70763 7.37169 6.14416 7.7059C5.74875 7.93519 5.45941 8.19724 4.10237 9.55506C2.63927 11.0189 2.49265 11.1858 2.20876 11.7115C1.72101 12.6091 1.55522 13.6466 1.73897 14.6515C1.92272 15.6564 2.44493 16.5682 3.21876 17.2351C3.99259 17.902 4.9714 18.284 5.99242 18.3174C7.01344 18.3508 8.01514 18.0337 8.83094 17.4188C8.98926 17.2995 9.46734 16.8487 9.92826 16.3855C10.6122 15.6976 10.7495 15.5439 10.7776 15.4387C10.8236 15.264 10.7737 15.1056 10.6208 14.9403C10.4102 14.7118 10.2028 14.6533 9.97428 14.7586C9.90954 14.789 9.50633 15.161 9.03371 15.6266C8.57903 16.0751 8.13448 16.4947 8.04557 16.5578C7.90487 16.6518 7.7582 16.7364 7.60649 16.8113C7.0797 17.072 6.49286 17.1873 5.9066 17.1453C5.32034 17.1034 4.75591 16.9057 4.27161 16.5726C2.78043 15.5424 2.39126 13.5583 3.37862 12.0235C3.51978 11.8043 3.79197 11.5157 4.95793 10.3521C5.99286 9.31874 6.42727 8.90539 6.59495 8.79543C7.05097 8.4941 7.57409 8.30953 8.11824 8.25799C8.66239 8.20644 9.21086 8.2895 9.71535 8.49984C10.2192 8.71042 10.6427 9.03408 11.0934 9.55349C11.3703 9.87248 11.6027 9.90679 11.91 9.67438C12.1588 9.4872 12.2305 9.23763 12.105 8.99508C11.963 8.71978 11.3726 8.13095 10.9679 7.85954C10.3653 7.44585 9.66978 7.18758 8.94324 7.10771C8.62704 7.06043 8.30584 7.05676 7.98864 7.09679Z" fill="#468C25"/>
</svg>
