<svg width="20" height="22" viewBox="0 0 20 22" fill="none" xmlns="http://www.w3.org/2000/svg">
<path fill-rule="evenodd" clip-rule="evenodd" d="M16 2C14.8954 2 14 2.89543 14 4C14 4.34711 14.0884 4.67357 14.244 4.95808C14.2543 4.97365 14.2642 4.98959 14.2737 5.0059C14.2831 5.0221 14.2921 5.03846 14.3005 5.05496C14.6535 5.62232 15.2826 6 16 6C17.1046 6 18 5.10457 18 4C18 2.89543 17.1046 2 16 2ZM13.158 6.81481C13.8829 7.54667 14.8885 8 16 8C18.2091 8 20 6.20914 20 4C20 1.79086 18.2091 0 16 0C13.7909 0 12 1.79086 12 4C12 4.377 12.0522 4.74181 12.1496 5.08762L6.84189 8.1851C6.117 7.4533 5.11144 7 4 7C1.79086 7 0 8.79086 0 11C0 13.2091 1.79086 15 4 15C5.11169 15 6.11746 14.5465 6.84239 13.8144L12.1509 16.9078C12.0526 17.255 12 17.6213 12 18C12 20.2091 13.7909 22 16 22C18.2091 22 20 20.2091 20 18C20 15.7909 18.2091 14 16 14C14.8902 14 13.886 14.4519 13.1614 15.1818L7.85052 12.0871C7.9479 11.7414 8 11.3768 8 11C8 10.623 7.94783 10.2581 7.85033 9.91226L13.158 6.81481ZM5.69995 9.94583C5.70825 9.96201 5.71704 9.97806 5.72632 9.99396C5.73567 10.01 5.7454 10.0257 5.75549 10.041C5.91137 10.3257 6 10.6525 6 11C6 11.3472 5.91155 11.6737 5.75596 11.9582C5.74558 11.9739 5.73559 11.99 5.726 12.0065C5.71669 12.0224 5.70786 12.0386 5.69953 12.0548C5.3466 12.6223 4.71741 13 4 13C2.89543 13 2 12.1046 2 11C2 9.89543 2.89543 9 4 9C4.71769 9 5.3471 9.37803 5.69995 9.94583ZM14 18C14 17.6748 14.0776 17.3677 14.2154 17.0963C14.24 17.0638 14.263 17.0295 14.284 16.9934C14.3042 16.9588 14.322 16.9235 14.3376 16.8876C14.6965 16.3523 15.3071 16 16 16C17.1046 16 18 16.8954 18 18C18 19.1046 17.1046 20 16 20C14.8954 20 14 19.1046 14 18Z" fill="#818698"/>
</svg>
