<svg width="24" height="24" viewBox="0 0 24 24" fill="none" xmlns="http://www.w3.org/2000/svg">
<path fill-rule="evenodd" clip-rule="evenodd" d="M2 3.38293C2 3.0304 2.28578 2.74463 2.6383 2.74463H6.04255C6.34678 2.74463 6.60873 2.95934 6.66844 3.25766L7.41745 6.99995H21.3617C21.5519 6.99995 21.7322 7.08479 21.8535 7.23136C21.9748 7.37793 22.0243 7.57095 21.9887 7.75781L20.6261 14.903C20.5191 15.4418 20.226 15.9257 19.7981 16.2702C19.3719 16.6132 18.8391 16.7961 18.2922 16.7872H10.0312C9.4843 16.7961 8.95148 16.6132 8.52531 16.2702C8.09764 15.9259 7.80462 15.4422 7.69749 14.9038L6.27451 7.79423C6.26955 7.77446 6.2655 7.75432 6.26243 7.73386L5.51935 4.02122H2.6383C2.28578 4.02122 2 3.73545 2 3.38293ZM7.67296 8.27654L8.94947 14.6543C8.99811 14.8992 9.13134 15.1192 9.32582 15.2758C9.52031 15.4323 9.76367 15.5155 10.0133 15.5107L10.0255 15.5106H18.2979L18.3101 15.5107C18.5597 15.5155 18.8031 15.4323 18.9976 15.2758C19.1915 15.1196 19.3245 14.9004 19.3735 14.6564L19.3739 14.6543L20.5902 8.27654H7.67296Z" fill="#1C1C1E"/>
<path d="M19.6595 19.5531C19.6595 20.4932 18.8975 21.2553 17.9574 21.2553C17.0174 21.2553 16.2553 20.4932 16.2553 19.5531C16.2553 18.6131 17.0174 17.851 17.9574 17.851C18.8975 17.851 19.6595 18.6131 19.6595 19.5531Z" fill="#1C1C1E"/>
<path d="M10.2978 21.2553C11.2379 21.2553 12 20.4932 12 19.5531C12 18.6131 11.2379 17.851 10.2978 17.851C9.35778 17.851 8.59571 18.6131 8.59571 19.5531C8.59571 20.4932 9.35778 21.2553 10.2978 21.2553Z" fill="#1C1C1E"/>
</svg>
