<svg width="20" height="20" viewBox="0 0 20 20" fill="none" xmlns="http://www.w3.org/2000/svg">
<path fill-rule="evenodd" clip-rule="evenodd" d="M9.18075 10.8193C9.03241 10.671 8.83124 10.5877 8.62149 10.5877C8.41173 10.5877 8.21057 10.671 8.06223 10.8193L1.58207 17.2994V12.9203C1.58207 12.7105 1.49873 12.5093 1.35038 12.3609C1.20203 12.2126 1.00083 12.1292 0.791035 12.1292C0.581239 12.1292 0.380036 12.2126 0.231689 12.3609C0.0833409 12.5093 0 12.7105 0 12.9203V19.209C0 19.4188 0.0833409 19.62 0.231689 19.7683C0.380036 19.9167 0.581239 20 0.791035 20H7.07976C7.28956 20 7.49076 19.9167 7.63911 19.7683C7.78745 19.62 7.87079 19.4188 7.87079 19.209C7.87079 18.9992 7.78745 18.798 7.63911 18.6496C7.49076 18.5013 7.28956 18.4179 7.07976 18.4179H2.70059L9.18075 11.9378C9.32905 11.7894 9.41235 11.5883 9.41235 11.3785C9.41235 11.1688 9.32905 10.9676 9.18075 10.8193ZM10.8193 9.18073C10.9676 9.32903 11.1688 9.41234 11.3785 9.41234C11.5883 9.41234 11.7894 9.32903 11.9378 9.18073L18.4179 2.70059V7.07975C18.4179 7.28954 18.5013 7.49075 18.6496 7.63909C18.798 7.78744 18.9992 7.87078 19.209 7.87078C19.4188 7.87078 19.62 7.78744 19.7683 7.63909C19.9167 7.49075 20 7.28954 20 7.07975V0.791033C20 0.581238 19.9167 0.380036 19.7683 0.231688C19.62 0.0833408 19.4188 0 19.209 0C18.9992 0 12.9202 0 12.9202 0C12.7104 3.12619e-09 12.5092 0.0833408 12.3609 0.231688C12.2125 0.380036 12.1292 0.581238 12.1292 0.791033C12.1292 1.00083 12.2125 1.20203 12.3609 1.35038C12.5092 1.49873 12.7104 1.58207 12.9202 1.58207H17.2994L10.8193 8.06221C10.671 8.21055 10.5876 8.41172 10.5876 8.62147C10.5876 8.83123 10.671 9.03239 10.8193 9.18073Z" fill="#468C25"/>
</svg>
