<svg width="18" height="18" viewBox="0 0 18 18" fill="none" xmlns="http://www.w3.org/2000/svg">
<path fill-rule="evenodd" clip-rule="evenodd" d="M17.151 8.99996C17.151 13.6023 13.4201 17.3333 8.81771 17.3333C4.21534 17.3333 0.484375 13.6023 0.484375 8.99996C0.484375 4.39759 4.21534 0.666626 8.81771 0.666626C13.4201 0.666626 17.151 4.39759 17.151 8.99996ZM12.8096 6.78184C13.0456 6.52347 13.0421 6.10829 12.8019 5.85453C12.5616 5.60077 12.1756 5.60451 11.9396 5.86288L7.48387 10.7417L5.69583 8.7839C5.45986 8.52552 5.0738 8.52178 4.83354 8.77554C4.59328 9.02931 4.5898 9.44448 4.82577 9.70286L7.04884 12.137C7.16349 12.2626 7.32025 12.3333 7.48387 12.3333C7.64749 12.3333 7.80425 12.2626 7.9189 12.137L12.8096 6.78184Z" fill="#66B342"/>
</svg>
