<svg width="16" height="10" viewBox="0 0 16 10" fill="none" xmlns="http://www.w3.org/2000/svg">
<path fill-rule="evenodd" clip-rule="evenodd" d="M7.77797 0.827597C7.65575 0.863152 6.85575 1.63871 4.0813 4.41426C0.190193 8.30537 0.376861 8.09204 0.490194 8.51649C0.556861 8.76204 0.904638 9.10982 1.15019 9.17649C1.5713 9.28982 1.4013 9.43649 4.85575 5.98537L8.00019 2.84537L11.1446 5.98537C14.5991 9.43649 14.4291 9.28982 14.8502 9.17649C15.0957 9.10982 15.4435 8.76204 15.5102 8.51649C15.6235 8.09315 15.8024 8.29871 11.9857 4.47537C10.0746 2.56093 8.4513 0.957597 8.37797 0.912042C8.28877 0.85836 8.18966 0.823215 8.08657 0.808706C7.98348 0.794196 7.87852 0.800621 7.77797 0.827597" fill="#468C25"/>
</svg>
