<svg width="23" height="22" viewBox="0 0 23 22" fill="none" xmlns="http://www.w3.org/2000/svg">
<path fill-rule="evenodd" clip-rule="evenodd" d="M8.67143 4.71429C8.67143 3.15211 9.93782 1.88571 11.5 1.88571C13.0622 1.88571 14.3286 3.15211 14.3286 4.71429C14.3286 6.27646 13.0622 7.54286 11.5 7.54286C9.93782 7.54286 8.67143 6.27646 8.67143 4.71429ZM11.5 0C8.89637 0 6.78571 2.11066 6.78571 4.71429C6.78571 7.31791 8.89637 9.42857 11.5 9.42857C14.1036 9.42857 16.2143 7.31791 16.2143 4.71429C16.2143 2.11066 14.1036 0 11.5 0ZM3.58239 15.6538C4.34861 14.8876 5.38783 14.4571 6.47143 14.4571H16.5286C17.6122 14.4571 18.6514 14.8876 19.4176 15.6538C20.1838 16.42 20.6143 17.4593 20.6143 18.5429C20.6143 18.9596 20.4487 19.3593 20.154 19.654C19.8593 19.9487 19.4596 20.1143 19.0429 20.1143H3.95714C3.54037 20.1143 3.14068 19.9487 2.84597 19.654C2.55128 19.3593 2.38571 18.9596 2.38571 18.5429C2.38571 17.4593 2.81617 16.42 3.58239 15.6538ZM6.47143 12.5714C4.88771 12.5714 3.36885 13.2006 2.24899 14.3204C1.12913 15.4403 0.5 16.9591 0.5 18.5429C0.5 19.4597 0.864234 20.3391 1.51257 20.9874C2.16091 21.6358 3.04025 22 3.95714 22H19.0429C19.9598 22 20.8391 21.6358 21.4874 20.9874C22.1358 20.3391 22.5 19.4597 22.5 18.5429C22.5 16.9591 21.8709 15.4403 20.751 14.3204C19.6311 13.2006 18.1123 12.5714 16.5286 12.5714H6.47143Z" fill="#1C1C1E"/>
</svg>
