<svg width="42" height="32" viewBox="0 0 42 32" fill="none" xmlns="http://www.w3.org/2000/svg">
<path d="M15.946 9.2415L10.4475 22.3595H6.86L4.1545 11.8892C3.99 11.2452 3.84825 11.009 3.34775 10.7377C2.53225 10.295 1.18475 9.88025 0 9.62125L0.0805 9.2415H5.8555C6.23288 9.24112 6.59797 9.37566 6.88486 9.62084C7.17176 9.86601 7.36156 10.2057 7.42 10.5785L8.84975 18.17L12.3812 9.2415H15.946ZM30.0037 18.0772C30.0178 14.614 25.2158 14.4232 25.249 12.8763C25.2595 12.4055 25.7075 11.905 26.6875 11.7773C27.836 11.6682 28.9927 11.8713 30.0352 12.3653L30.6303 9.58275C29.6152 9.20115 28.5402 9.00381 27.4557 9C24.101 9 21.7402 10.785 21.7192 13.3382C21.6982 15.2265 23.4045 16.2782 24.6908 16.9082C26.0138 17.5505 26.4583 17.9635 26.4513 18.5375C26.4425 19.4195 25.3978 19.8062 24.4212 19.822C22.715 19.8482 21.7262 19.3617 20.9353 18.9943L20.321 21.8678C21.1138 22.2318 22.5767 22.5503 24.094 22.5642C27.6587 22.5642 29.9915 20.8038 30.0037 18.0772ZM38.8605 22.3595H42L39.2612 9.2415H36.3633C36.0536 9.23863 35.7502 9.32886 35.4925 9.50048C35.2348 9.6721 35.0345 9.9172 34.9177 10.204L29.827 22.3595H33.39L34.0988 20.3995H38.4528L38.8605 22.3595ZM35.0752 17.7115L36.8602 12.7852L37.8892 17.7115H35.0752ZM20.7952 9.2415L17.99 22.3595H14.595L17.4037 9.2415H20.7952Z" fill="#09479C"/>
</svg>
