<svg width="20" height="20" viewBox="0 0 20 20" fill="none" xmlns="http://www.w3.org/2000/svg">
<path fill-rule="evenodd" clip-rule="evenodd" d="M0.544967 2.73005C0 3.79961 0 5.19974 0 8V12C0 14.8003 0 16.2004 0.544967 17.27C1.02433 18.2108 1.78924 18.9757 2.73005 19.455C3.79961 20 5.19974 20 8 20H12C14.8003 20 16.2004 20 17.27 19.455C18.2108 18.9757 18.9757 18.2108 19.455 17.27C20 16.2004 20 14.8003 20 12V8C20 5.19974 20 3.79961 19.455 2.73005C18.9757 1.78924 18.2108 1.02433 17.27 0.544967C16.2004 0 14.8003 0 12 0H8C5.19974 0 3.79961 0 2.73005 0.544967C1.78924 1.02433 1.02433 1.78924 0.544967 2.73005ZM3.33333 5.83333C3.4445 11.2751 6.11247 14.5455 10.79 14.5455H11.0551V11.4321C11.8801 11.5381 12.6562 11.89 13.2859 12.4439C13.9157 12.9977 14.3712 13.7288 14.5953 14.5455H17.0238C16.7742 13.6052 16.3318 12.7296 15.726 11.9765C15.1202 11.2233 14.3647 10.6098 13.5093 10.1763C14.2756 9.70191 14.9377 9.07135 15.4541 8.32407C15.9706 7.57679 16.3303 6.72886 16.5107 5.83333H14.3045C13.8257 7.56006 12.4062 9.12981 11.0551 9.27807V5.83333H8.84886V11.8682C7.48067 11.5193 5.75332 9.82748 5.67636 5.83333H3.33333Z" fill="#468C25"/>
</svg>
