<svg width="17" height="18" viewBox="0 0 17 18" fill="none" xmlns="http://www.w3.org/2000/svg">
<path d="M14.3946 3.0973C12.8267 1.5348 10.7361 0.666748 8.52936 0.666748C3.94167 0.666748 0.225063 4.37045 0.225063 8.94221C0.225063 10.389 0.631568 11.8357 1.32843 13.051L0.166992 17.3334L4.58047 16.176C5.79998 16.8126 7.13563 17.1598 8.52936 17.1598C13.117 17.1598 16.8337 13.4561 16.8337 8.88434C16.7756 6.74314 15.9626 4.6598 14.3946 3.0973ZM12.5363 11.8936C12.3621 12.3566 11.5491 12.8195 11.1426 12.8774C10.7942 12.9353 10.3296 12.9353 9.86502 12.8195C9.57466 12.7038 9.16815 12.588 8.70358 12.3566C6.61299 11.4885 5.27733 9.40517 5.16119 9.23156C5.04504 9.11582 4.29011 8.13203 4.29011 7.09036C4.29011 6.04869 4.81275 5.58573 4.98697 5.35425C5.16118 5.12277 5.39347 5.12277 5.56769 5.12277C5.68383 5.12277 5.85805 5.12277 5.97419 5.12277C6.09033 5.12277 6.26455 5.0649 6.43877 5.46999C6.61298 5.87508 7.01949 6.91675 7.07756 6.97462C7.13563 7.09036 7.13563 7.2061 7.07756 7.32184C7.01949 7.43758 6.96141 7.55332 6.84527 7.66906C6.72913 7.7848 6.61298 7.95841 6.55491 8.01628C6.43877 8.13203 6.32262 8.24777 6.43877 8.42138C6.55491 8.65286 6.96142 9.28943 7.60021 9.86814C8.41322 10.5626 9.05201 10.7941 9.2843 10.9098C9.51659 11.0255 9.63273 10.9677 9.74887 10.8519C9.86502 10.7362 10.2715 10.2732 10.3877 10.0417C10.5038 9.81027 10.678 9.86814 10.8522 9.92601C11.0265 9.98388 12.0718 10.5047 12.246 10.6205C12.4783 10.7362 12.5944 10.7941 12.6525 10.8519C12.7105 11.0255 12.7105 11.4306 12.5363 11.8936Z" fill="#468C25"/>
</svg>
