<svg width="24" height="24" viewBox="0 0 24 24" fill="none" xmlns="http://www.w3.org/2000/svg">
<path fill-rule="evenodd" clip-rule="evenodd" d="M5.69931 5.13138C5.50402 5.18732 5.18057 5.52501 5.12463 5.73047C5.02088 6.11596 4.88662 5.96034 8.04584 9.12261L10.9203 12.0011L8.04584 14.8796C4.88662 18.0419 5.02088 17.8862 5.12463 18.2717C5.18566 18.4965 5.50402 18.8149 5.72881 18.8759C6.1143 18.9797 5.95868 19.1139 9.12095 15.9547L11.9994 13.0803L14.8779 15.9547C18.0402 19.1139 17.8846 18.9797 18.2701 18.8759C18.4949 18.8149 18.8132 18.4965 18.8743 18.2717C18.978 17.8862 19.1123 18.0419 15.953 14.8796L13.0786 12.0011L15.953 9.12261C19.1123 5.96034 18.978 6.11596 18.8743 5.73047C18.8132 5.50568 18.4949 5.18732 18.2701 5.12629C17.8846 5.02254 18.0402 4.88828 14.8779 8.0475L11.9994 10.9219L9.12095 8.0475C5.93529 4.86692 6.1082 5.01339 5.69931 5.13138Z" fill="#1C1C1E"/>
</svg>
