<svg width="20" height="14" viewBox="0 0 20 14" fill="none" xmlns="http://www.w3.org/2000/svg">
<path fill-rule="evenodd" clip-rule="evenodd" d="M2.05681 13.4153C1.70021 13.3098 1.37483 13.1221 1.10814 12.8681C0.841454 12.614 0.641275 12.3011 0.524498 11.9557C-0.142799 10.1703 -0.340517 2.7154 0.944647 1.24371C1.37237 0.764959 1.97627 0.470204 2.62525 0.423423C6.07295 0.0615325 16.725 0.109785 17.9484 0.544054C18.2924 0.653026 18.6068 0.836602 18.8679 1.08103C19.129 1.32545 19.33 1.62438 19.456 1.95543C20.185 3.80107 20.2097 10.5081 19.3571 12.2814C19.1309 12.743 18.7522 13.1169 18.282 13.3429C16.9968 13.9702 3.76212 13.9581 2.05681 13.4153ZM7.53111 9.91702L13.7098 6.78063L7.53111 3.62012V9.91702Z" fill="#468C25"/>
</svg>
